  0
SECTION
  2
HEADER
  9
$ACADVER
  1
AC1015
  9
$ACADMAINTVER
 70
     6
  9
$DWGCODEPAGE
  3
ANSI_1252
  9
$INSBASE
 10
0.0
 20
0.0
 30
0.0
  9
$EXTMIN
 10
-33.5
 20
-33.5
 30
0.0
  9
$EXTMAX
 10
33.5
 20
33.5
 30
0.0
  9
$LIMMIN
 10
0.0
 20
0.0
  9
$LIMMAX
 10
420.0
 20
297.0
  9
$ORTHOMODE
 70
     0
  9
$REGENMODE
 70
     1
  9
$FILLMODE
 70
     1
  9
$QTEXTMODE
 70
     0
  9
$MIRRTEXT
 70
     1
  9
$LTSCALE
 40
1.0
  9
$ATTMODE
 70
     1
  9
$TEXTSIZE
 40
3.5
  9
$TRACEWID
 40
1.0
  9
$TEXTSTYLE
  7
Standard
  9
$CLAYER
  8
0
  9
$CELTYPE
  6
ByLayer
  9
$CECOLOR
 62
   256
  9
$CELTSCALE
 40
1.0
  9
$DISPSILH
 70
     0
  9
$DIMSCALE
 40
1.0
  9
$DIMASZ
 40
3.302
  9
$DIMEXO
 40
0.0
  9
$DIMDLI
 40
3.75
  9
$DIMRND
 40
0.0
  9
$DIMDLE
 40
0.0
  9
$DIMEXE
 40
1.0
  9
$DIMTP
 40
0.0
  9
$DIMTM
 40
0.0
  9
$DIMTXT
 40
3.5
  9
$DIMCEN
 40
2.5
  9
$DIMTSZ
 40
0.0
  9
$DIMTOL
 70
     0
  9
$DIMLIM
 70
     0
  9
$DIMTIH
 70
     1
  9
$DIMTOH
 70
     1
  9
$DIMSE1
 70
     0
  9
$DIMSE2
 70
     0
  9
$DIMTAD
 70
     1
  9
$DIMZIN
 70
     1
  9
$DIMBLK
  1

  9
$DIMASO
 70
     1
  9
$DIMSHO
 70
     1
  9
$DIMPOST
  1

  9
$DIMAPOST
  1

  9
$DIMALT
 70
     0
  9
$DIMALTD
 70
     3
  9
$DIMALTF
 40
0.0393700787
  9
$DIMLFAC
 40
1.0
  9
$DIMTOFL
 70
     1
  9
$DIMTVP
 40
0.0
  9
$DIMTIX
 70
     0
  9
$DIMSOXD
 70
     0
  9
$DIMSAH
 70
     0
  9
$DIMBLK1
  1

  9
$DIMBLK2
  1

  9
$DIMSTYLE
  2
ISO-25
  9
$DIMCLRD
 70
     0
  9
$DIMCLRE
 70
     0
  9
$DIMCLRT
 70
     0
  9
$DIMTFAC
 40
1.0
  9
$DIMGAP
 40
1.524
  9
$DIMJUST
 70
     0
  9
$DIMSD1
 70
     0
  9
$DIMSD2
 70
     0
  9
$DIMTOLJ
 70
     0
  9
$DIMTZIN
 70
     1
  9
$DIMALTZ
 70
     0
  9
$DIMALTTZ
 70
     0
  9
$DIMUPT
 70
     0
  9
$DIMDEC
 70
     2
  9
$DIMTDEC
 70
     2
  9
$DIMALTU
 70
     2
  9
$DIMALTTD
 70
     3
  9
$DIMTXSTY
  7
Standard
  9
$DIMAUNIT
 70
     0
  9
$DIMADEC
 70
     2
  9
$DIMALTRND
 40
0.0
  9
$DIMAZIN
 70
     0
  9
$DIMDSEP
 70
    44
  9
$DIMATFIT
 70
     3
  9
$DIMFRAC
 70
     0
  9
$DIMLDRBLK
  1

  9
$DIMLUNIT
 70
     2
  9
$DIMLWD
 70
    -2
  9
$DIMLWE
 70
    -2
  9
$DIMTMOVE
 70
     0
  9
$LUNITS
 70
     2
  9
$LUPREC
 70
     2
  9
$SKETCHINC
 40
1.0
  9
$FILLETRAD
 40
10.0
  9
$AUNITS
 70
     0
  9
$AUPREC
 70
     2
  9
$MENU
  1
.
  9
$ELEVATION
 40
0.0
  9
$PELEVATION
 40
0.0
  9
$THICKNESS
 40
0.0
  9
$LIMCHECK
 70
     0
  9
$CHAMFERA
 40
0.0
  9
$CHAMFERB
 40
0.0
  9
$CHAMFERC
 40
0.0
  9
$CHAMFERD
 40
0.0
  9
$SKPOLY
 70
     0
  9
$TDCREATE
 40
2460383.54092228
  9
$TDUCREATE
 40
2460383.457588947
  9
$TDUPDATE
 40
2460383.54097596
  9
$TDUUPDATE
 40
2460383.457642627
  9
$TDINDWG
 40
0.0000000116
  9
$TDUSRTIMER
 40
0.0000000116
  9
$USRTIMER
 70
     1
  9
$ANGBASE
 50
0.0
  9
$ANGDIR
 70
     0
  9
$PDMODE
 70
     0
  9
$PDSIZE
 40
-1.0
  9
$PLINEWID
 40
0.0
  9
$SPLFRAME
 70
     0
  9
$SPLINETYPE
 70
     6
  9
$SPLINESEGS
 70
     8
  9
$HANDSEED
  5
B8
  9
$SURFTAB1
 70
     6
  9
$SURFTAB2
 70
     6
  9
$SURFTYPE
 70
     6
  9
$SURFU
 70
     6
  9
$SURFV
 70
     6
  9
$UCSBASE
  2

  9
$UCSNAME
  2

  9
$UCSORG
 10
0.0
 20
0.0
 30
0.0
  9
$UCSXDIR
 10
1.0
 20
0.0
 30
0.0
  9
$UCSYDIR
 10
0.0
 20
1.0
 30
0.0
  9
$UCSORTHOREF
  2

  9
$UCSORTHOVIEW
 70
     0
  9
$UCSORGTOP
 10
0.0
 20
0.0
 30
0.0
  9
$UCSORGBOTTOM
 10
0.0
 20
0.0
 30
0.0
  9
$UCSORGLEFT
 10
0.0
 20
0.0
 30
0.0
  9
$UCSORGRIGHT
 10
0.0
 20
0.0
 30
0.0
  9
$UCSORGFRONT
 10
0.0
 20
0.0
 30
0.0
  9
$UCSORGBACK
 10
0.0
 20
0.0
 30
0.0
  9
$PUCSBASE
  2

  9
$PUCSNAME
  2

  9
$PUCSORG
 10
0.0
 20
0.0
 30
0.0
  9
$PUCSXDIR
 10
1.0
 20
0.0
 30
0.0
  9
$PUCSYDIR
 10
0.0
 20
1.0
 30
0.0
  9
$PUCSORTHOREF
  2

  9
$PUCSORTHOVIEW
 70
     0
  9
$PUCSORGTOP
 10
0.0
 20
0.0
 30
0.0
  9
$PUCSORGBOTTOM
 10
0.0
 20
0.0
 30
0.0
  9
$PUCSORGLEFT
 10
0.0
 20
0.0
 30
0.0
  9
$PUCSORGRIGHT
 10
0.0
 20
0.0
 30
0.0
  9
$PUCSORGFRONT
 10
0.0
 20
0.0
 30
0.0
  9
$PUCSORGBACK
 10
0.0
 20
0.0
 30
0.0
  9
$USERI1
 70
     0
  9
$USERI2
 70
     0
  9
$USERI3
 70
     0
  9
$USERI4
 70
     0
  9
$USERI5
 70
     0
  9
$USERR1
 40
0.0
  9
$USERR2
 40
0.0
  9
$USERR3
 40
0.0
  9
$USERR4
 40
0.0
  9
$USERR5
 40
0.0
  9
$WORLDVIEW
 70
     1
  9
$SHADEDGE
 70
     3
  9
$SHADEDIF
 70
    70
  9
$TILEMODE
 70
     1
  9
$MAXACTVP
 70
    64
  9
$PINSBASE
 10
0.0
 20
0.0
 30
0.0
  9
$PLIMCHECK
 70
     0
  9
$PEXTMIN
 10
1.0000000000E+20
 20
1.0000000000E+20
 30
1.0000000000E+20
  9
$PEXTMAX
 10
-1.0000000000E+20
 20
-1.0000000000E+20
 30
-1.0000000000E+20
  9
$PLIMMIN
 10
0.0
 20
0.0
  9
$PLIMMAX
 10
420.0
 20
297.0
  9
$UNITMODE
 70
     0
  9
$VISRETAIN
 70
     1
  9
$PLINEGEN
 70
     0
  9
$PSLTSCALE
 70
     1
  9
$TREEDEPTH
 70
  3020
  9
$CMLSTYLE
  2
Standard
  9
$CMLJUST
 70
     0
  9
$CMLSCALE
 40
20.0
  9
$PROXYGRAPHICS
 70
     1
  9
$MEASUREMENT
 70
     1
  9
$CELWEIGHT
370
    -1
  9
$ENDCAPS
280
     0
  9
$JOINSTYLE
280
     0
  9
$LWDISPLAY
290
     1
  9
$INSUNITS
 70
     4
  9
$HYPERLINKBASE
  1

  9
$STYLESHEET
  1

  9
$XEDIT
290
     1
  9
$CEPSNTYPE
380
     0
  9
$PSTYLEMODE
290
     1
  9
$FINGERPRINTGUID
  2
{486407bd-971f-4839-9235-85a625be39c2}
  9
$VERSIONGUID
  2
{FAEB1C32-E019-11D5-929B-00C0DF256EC4}
  9
$EXTNAMES
290
     1
  9
$PSVPSCALE
 40
0.0
  9
$OLESTARTUP
290
     0
  0
ENDSEC
  0
SECTION
  2
CLASSES
  0
CLASS
  1
ACDBDICTIONARYWDFLT
  2
AcDbDictionaryWithDefault
  3
ObjectDBX Classes
 90
        0
280
     0
281
     0
  0
CLASS
  1
VISUALSTYLE
  2
AcDbVisualStyle
  3
ObjectDBX Classes
 90
     4095
280
     0
281
     0
  0
CLASS
  1
MATERIAL
  2
AcDbMaterial
  3
ObjectDBX Classes
 90
     1153
280
     0
281
     0
  0
CLASS
  1
SCALE
  2
AcDbScale
  3
ObjectDBX Classes
 90
     1153
280
     0
281
     0
  0
CLASS
  1
TABLESTYLE
  2
AcDbTableStyle
  3
ObjectDBX Classes
 90
     4095
280
     0
281
     0
  0
CLASS
  1
MLEADERSTYLE
  2
AcDbMLeaderStyle
  3
ACDB_MLEADERSTYLE_CLASS
 90
     4095
280
     0
281
     0
  0
CLASS
  1
SUN
  2
AcDbSun
  3
SCENEOE
 90
     1153
280
     0
281
     0
  0
CLASS
  1
ACDBPLACEHOLDER
  2
AcDbPlaceHolder
  3
ObjectDBX Classes
 90
        0
280
     0
281
     0
  0
CLASS
  1
LAYOUT
  2
AcDbLayout
  3
ObjectDBX Classes
 90
        0
280
     0
281
     0
  0
ENDSEC
  0
SECTION
  2
TABLES
  0
TABLE
  2
VPORT
  5
8
330
0
100
AcDbSymbolTable
 70
     1
  0
VPORT
  5
29
330
8
100
AcDbSymbolTableRecord
100
AcDbViewportTableRecord
  2
*Active
 70
     0
 10
0.0
 20
0.0
 11
1.0
 21
1.0
 12
0.0
 22
0.0
 13
0.0
 23
0.0
 14
10.0
 24
10.0
 15
10.0
 25
10.0
 16
0.0
 26
0.0
 36
1.0
 17
0.0
 27
0.0
 37
0.0
 40
68.34
 41
1.0
 42
50.0
 43
0.0
 44
0.0
 50
0.0
 51
0.0
 71
     0
 72
   100
 73
     1
 74
     3
 75
     0
 76
     0
 77
     0
 78
     0
281
     0
 65
     1
110
0.0
120
0.0
130
0.0
111
1.0
121
0.0
131
0.0
112
0.0
122
1.0
132
0.0
 79
     0
146
0.0
  0
ENDTAB
  0
TABLE
  2
LTYPE
  5
5
330
0
100
AcDbSymbolTable
 70
     6
  0
LTYPE
  5
14
330
5
100
AcDbSymbolTableRecord
100
AcDbLinetypeTableRecord
  2
ByBlock
 70
     0
  3

 72
    65
 73
     0
 40
0.0
  0
LTYPE
  5
15
330
5
100
AcDbSymbolTableRecord
100
AcDbLinetypeTableRecord
  2
ByLayer
 70
     0
  3

 72
    65
 73
     0
 40
0.0
  0
LTYPE
  5
16
330
5
100
AcDbSymbolTableRecord
100
AcDbLinetypeTableRecord
  2
Continuous
 70
     0
  3
Solid line
 72
    65
 73
     0
 40
0.0
  0
LTYPE
  5
6E
330
5
100
AcDbSymbolTableRecord
100
AcDbLinetypeTableRecord
  2
HIDDEN
 70
     0
  3
Hidden __ __ __ __ __ __ __ __ __ __ __ __ __ __
 72
    65
 73
     2
 40
1.905
 49
1.27
 74
     0
 49
-0.635
 74
     0
  0
LTYPE
  5
6F
330
5
100
AcDbSymbolTableRecord
100
AcDbLinetypeTableRecord
  2
PHANTOM
 70
     0
  3
Phantom ______  __  __  ______  __  __  ______
 72
    65
 73
     6
 40
12.7
 49
6.35
 74
     0
 49
-1.27
 74
     0
 49
1.27
 74
     0
 49
-1.27
 74
     0
 49
1.27
 74
     0
 49
-1.27
 74
     0
  0
LTYPE
  5
70
330
5
100
AcDbSymbolTableRecord
100
AcDbLinetypeTableRecord
  2
CENTER
 70
     0
  3
Center ____ _ ____ _ ____ _ ____ _ ____ _ ____
 72
    65
 73
     4
 40
10.16
 49
6.35
 74
     0
 49
-1.27
 74
     0
 49
1.27
 74
     0
 49
-1.27
 74
     0
  0
LTYPE
  5
71
330
5
100
AcDbSymbolTableRecord
100
AcDbLinetypeTableRecord
  2
CENTERX2
 70
     0
  3
Center (2x) ________  __  ________  __  _____
 72
    65
 73
     4
 40
20.32
 49
12.7
 74
     0
 49
-2.54
 74
     0
 49
2.54
 74
     0
 49
-2.54
 74
     0
  0
LTYPE
  5
72
330
5
100
AcDbSymbolTableRecord
100
AcDbLinetypeTableRecord
  2
DOT2
 70
     0
  3
Dot (.5x) ........................................
 72
    65
 73
     2
 40
0.635
 49
0.0
 74
     0
 49
-0.635
 74
     0
  0
ENDTAB
  0
TABLE
  2
LAYER
  5
2
330
0
100
AcDbSymbolTable
 70
     1
  0
LAYER
  5
10
330
2
100
AcDbSymbolTableRecord
100
AcDbLayerTableRecord
  2
0
 70
     0
 62
     7
  6
Continuous
370
    -3
390
F
  0
ENDTAB
  0
TABLE
  2
STYLE
  5
3
330
0
100
AcDbSymbolTable
 70
     1
  0
STYLE
  5
11
330
3
100
AcDbSymbolTableRecord
100
AcDbTextStyleTableRecord
  2
Standard
 70
     0
 40
0.0
 41
1.0
 50
0.0
 71
     0
 42
3.5
  3
txt
  4

  0
ENDTAB
  0
TABLE
  2
VIEW
  5
6
330
0
100
AcDbSymbolTable
 70
     0
  0
ENDTAB
  0
TABLE
  2
UCS
  5
7
330
0
100
AcDbSymbolTable
 70
     0
  0
ENDTAB
  0
TABLE
  2
APPID
  5
9
330
0
100
AcDbSymbolTable
 70
     1
  0
APPID
  5
12
330
9
100
AcDbSymbolTableRecord
100
AcDbRegAppTableRecord
  2
ACAD
 70
     0
  0
ENDTAB
  0
TABLE
  2
DIMSTYLE
  5
A
330
0
100
AcDbSymbolTable
 70
     1
100
AcDbDimStyleTable
  0
DIMSTYLE
105
27
330
A
100
AcDbSymbolTableRecord
100
AcDbDimStyleTableRecord
  2
ISO-25
 70
     0
 41
2.5
 42
0.625
 43
3.75
 44
1.25
 73
     0
 74
     0
 77
     1
 78
     8
140
2.5
141
2.5
143
0.0393700787
147
0.625
171
     3
172
     1
178
     0
271
     2
272
     2
274
     3
278
    44
283
     0
284
     8
340
11
  0
ENDTAB
  0
TABLE
  2
BLOCK_RECORD
  5
1
330
0
100
AcDbSymbolTable
 70
     1
  0
BLOCK_RECORD
  5
1F
330
1
100
AcDbSymbolTableRecord
100
AcDbBlockTableRecord
  2
*Model_Space
340
22
  0
BLOCK_RECORD
  5
1B
330
1
100
AcDbSymbolTableRecord
100
AcDbBlockTableRecord
  2
*Paper_Space
340
1E
  0
BLOCK_RECORD
  5
23
330
1
100
AcDbSymbolTableRecord
100
AcDbBlockTableRecord
  2
*Paper_Space0
340
26
  0
ENDTAB
  0
ENDSEC
  0
SECTION
  2
BLOCKS
  0
BLOCK
  5
20
330
1F
100
AcDbEntity
  8
0
100
AcDbBlockBegin
  2
*Model_Space
 70
     0
 10
0.0
 20
0.0
 30
0.0
  3
*Model_Space
  1

  0
ENDBLK
  5
21
330
1F
100
AcDbEntity
  8
0
100
AcDbBlockEnd
  0
BLOCK
  5
1C
330
1B
100
AcDbEntity
 67
     1
  8
0
100
AcDbBlockBegin
  2
*Paper_Space
 70
     0
 10
0.0
 20
0.0
 30
0.0
  3
*Paper_Space
  1

  0
ENDBLK
  5
1D
330
1B
100
AcDbEntity
 67
     1
  8
0
100
AcDbBlockEnd
  0
BLOCK
  5
24
330
23
100
AcDbEntity
  8
0
100
AcDbBlockBegin
  2
*Paper_Space0
 70
     0
 10
0.0
 20
0.0
 30
0.0
  3
*Paper_Space0
  1

  0
ENDBLK
  5
25
330
23
100
AcDbEntity
  8
0
100
AcDbBlockEnd
  0
ENDSEC
  0
SECTION
  2
ENTITIES
  0
CIRCLE
  5
73
330
1F
100
AcDbEntity
  8
0
  6
Continuous
 62
     7
370
    25
100
AcDbCircle
 10
9.0
 20
26.3983866769
 30
0.0
 40
1.499999999999993
  0
CIRCLE
  5
74
330
1F
100
AcDbEntity
  8
0
  6
Continuous
 62
     7
370
    25
100
AcDbCircle
 10
10.5808080808
 20
-24.8175785961
 30
0.0
 40
1.499999999999993
  0
CIRCLE
  5
75
330
1F
100
AcDbEntity
  8
0
  6
Continuous
 62
     7
370
    25
100
AcDbCircle
 10
-24.8175785961
 20
9.0
 30
0.0
 40
1.500000000000004
  0
CIRCLE
  5
76
330
1F
100
AcDbEntity
  8
0
  6
Continuous
 62
     7
370
    25
100
AcDbCircle
 10
-24.8175785961
 20
-9.0
 30
0.0
 40
1.499999999999996
  0
CIRCLE
  5
77
330
1F
100
AcDbEntity
  8
0
  6
Continuous
 62
     7
370
    25
100
AcDbCircle
 10
-9.0
 20
26.3983866769
 30
0.0
 40
1.5
  0
CIRCLE
  5
78
330
1F
100
AcDbEntity
  8
0
  6
Continuous
 62
     7
370
    25
100
AcDbCircle
 10
26.3983866769
 20
-7.4191919192
 30
0.0
 40
1.499999999999996
  0
CIRCLE
  5
79
330
1F
100
AcDbEntity
  8
0
  6
Continuous
 62
     7
370
    25
100
AcDbCircle
 10
26.3983866769
 20
10.5808080808
 30
0.0
 40
1.499999999997652
  0
CIRCLE
  5
7A
330
1F
100
AcDbEntity
  8
0
  6
Continuous
 62
     7
370
    25
100
AcDbCircle
 10
-7.4191919192
 20
-24.8175785961
 30
0.0
 40
1.500000000000011
  0
CIRCLE
  5
7B
330
1F
100
AcDbEntity
  8
0
  6
Continuous
 62
     7
370
    25
100
AcDbCircle
 10
16.5
 20
0.0
 30
0.0
 40
1.500000000000002
  0
CIRCLE
  5
7C
330
1F
100
AcDbEntity
  8
0
  6
Continuous
 62
     7
370
    25
100
AcDbCircle
 10
0.0
 20
-16.5
 30
0.0
 40
1.500000000001016
  0
CIRCLE
  5
7D
330
1F
100
AcDbEntity
  8
0
  6
Continuous
 62
     7
370
    25
100
AcDbCircle
 10
-16.5
 20
0.0
 30
0.0
 40
1.500000000000006
  0
CIRCLE
  5
7E
330
1F
100
AcDbEntity
  8
0
  6
Continuous
 62
     7
370
    25
100
AcDbCircle
 10
0.0
 20
16.5
 30
0.0
 40
1.5
  0
SPLINE
  5
80
330
1F
100
AcDbEntity
  8
0
  6
Continuous
 62
     7
370
    25
100
AcDbSpline
210
0.0
220
0.0
230
1.0
 70
     8
 71
     3
 72
    52
 73
    48
 74
     0
 42
0.00000001
 43
0.00000001
 40
0.0
 40
0.0
 40
0.0
 40
0.0
 40
0.0082752946480384
 40
0.0164710575578118
 40
0.024696211105128
 40
0.0330585292719387
 40
0.0416606320620347
 40
0.0505968825476751
 40
0.0599515373310007
 40
0.0697981180842685
 40
0.0801997204602684
 40
0.0912099023156473
 40
0.1028738411885563
 40
0.1152295454831641
 40
0.1283089942575935
 40
0.1421391470012335
 40
0.1567428062215884
 40
0.172139338083616
 40
0.188345266541281
 40
0.2053747596051931
 40
0.2232400260150466
 40
0.2419516386344492
 40
0.2615187984381736
 40
0.2819495505484789
 40
0.3032509616248216
 40
0.3254292660896864
 40
0.3484899871771011
 40
0.3724380375831187
 40
0.3972778035334877
 40
0.4230132153182527
 40
0.4496478067368588
 40
0.4771847654175678
 40
0.5056269755949152
 40
0.5349770546272469
 40
0.5652373842962727
 40
0.5964101377388945
 40
0.6284973027079785
 40
0.6615007017352649
 40
0.6954220096699196
 40
0.73026276898546
 40
0.7660244031820613
 40
0.8027082285575855
 40
0.8403154645766647
 40
0.8788472430309465
 40
0.9183046161536891
 40
0.9586885638270796
 40
1.0
 40
1.0
 40
1.0
 40
1.0
 10
-31.50000000000003
 20
15.00000000000001
 30
0.0
 10
-31.52936361342225
 20
14.99906374565064
 30
0.0
 10
-31.58780863409559
 20
14.99720023505278
 30
0.0
 10
-31.67431309639216
 20
14.98175690770436
 30
0.0
 10
-31.75880198500776
 20
14.95699926871571
 30
0.0
 10
-31.84123854265043
 20
14.92207295485043
 30
0.0
 10
-31.92159930651887
 20
14.87725221396965
 30
0.0
 10
-31.9998792625246
 20
14.82250923896097
 30
0.0
 10
-32.07608702544694
 20
14.75789423545738
 30
0.0
 10
-32.15023886911208
 20
14.68342394572641
 30
0.0
 10
-32.2223531981137
 20
14.59911238482217
 30
0.0
 10
-32.29244711688528
 20
14.50496425786402
 30
0.0
 10
-32.36053485512053
 20
14.4009799703827
 30
0.0
 10
-32.42662744415742
 20
14.28715698139527
 30
0.0
 10
-32.490733025292
 20
14.16349147874452
 30
0.0
 10
-32.55285738790204
 20
14.02997922873739
 30
0.0
 10
-32.6130045217163
 20
13.88661610504717
 30
0.0
 10
-32.6711770930403
 20
13.73339833457955
 30
0.0
 10
-32.7273768212132
 20
13.57032259566577
 30
0.0
 10
-32.78160476165707
 20
13.39738602932148
 30
0.0
 10
-32.83386151214447
 20
13.2145862087253
 30
0.0
 10
-32.88414736006138
 20
13.02192109072777
 30
0.0
 10
-32.93246238606311
 20
12.81938896294028
 30
0.0
 10
-32.97880653626832
 20
12.60698839304666
 30
0.0
 10
-33.02317967209731
 20
12.3847181833148
 30
0.0
 10
-33.06558160438458
 20
12.15257733124254
 30
0.0
 10
-33.1060121165029
 20
11.91056499625502
 30
0.0
 10
-33.14447097984879
 20
11.65868047190293
 30
0.0
 10
-33.18095796403897
 20
11.39692316284383
 30
0.0
 10
-33.21547284346141
 20
11.1252925658744
 30
0.0
 10
-33.24801540132506
 20
10.84378825433814
 30
0.0
 10
-33.27858543200706
 20
10.55240986531732
 30
0.0
 10
-33.30718274224233
 20
10.25115708910782
 30
0.0
 10
-33.33380715157435
 20
9.94002966055896
 30
0.0
 10
-33.35845849219526
 20
9.619027351935008
 30
0.0
 10
-33.38113660889651
 20
9.288149967017509
 30
0.0
 10
-33.40184135715526
 20
8.947397336220549
 30
0.0
 10
-33.42057260763219
 20
8.596769312533167
 30
0.0
 10
-33.43733022524526
 20
8.2362657681418
 30
0.0
 10
-33.45211414691743
 20
7.86588659159989
 30
0.0
 10
-33.46492407595063
 20
7.485631685489831
 30
0.0
 10
-33.47576066441975
 20
7.095500964327605
 30
0.0
 10
-33.48462092592241
 20
6.695494353301528
 30
0.0
 10
-33.49151600016432
 20
6.285611785248164
 30
0.0
 10
-33.49640240121145
 20
5.865853205669138
 30
0.0
 10
-33.49944786575391
 20
5.436218547662814
 30
0.0
 10
-33.49981456752836
 20
5.14650256535694
 30
0.0
 10
-33.50000000000003
 20
5.000000000000004
 30
0.0
  0
SPLINE
  5
86
330
1F
100
AcDbEntity
  8
0
  6
Continuous
 62
     7
370
    25
100
AcDbSpline
210
0.0
220
0.0
230
1.0
 70
     8
 71
     3
 72
    52
 73
    48
 74
     0
 42
0.00000001
 43
0.00000001
 40
0.0
 40
0.0
 40
0.0
 40
0.0
 40
0.0082752946480384
 40
0.0164710575578118
 40
0.024696211105128
 40
0.0330585292719387
 40
0.0416606320620348
 40
0.050596882547675
 40
0.0599515373310013
 40
0.0697981180842686
 40
0.0801997204602682
 40
0.0912099023156473
 40
0.1028738411885567
 40
0.1152295454831641
 40
0.1283089942575935
 40
0.1421391470012339
 40
0.1567428062215888
 40
0.172139338083616
 40
0.1883452665412812
 40
0.2053747596051931
 40
0.2232400260150468
 40
0.2419516386344495
 40
0.261518798438174
 40
0.281949550548479
 40
0.3032509616248215
 40
0.3254292660896866
 40
0.3484899871771014
 40
0.3724380375831189
 40
0.397277803533488
 40
0.4230132153182529
 40
0.4496478067368591
 40
0.477184765417568
 40
0.5056269755949152
 40
0.5349770546272467
 40
0.5652373842962726
 40
0.5964101377388945
 40
0.6284973027079784
 40
0.6615007017352648
 40
0.6954220096699197
 40
0.73026276898546
 40
0.7660244031820614
 40
0.8027082285575856
 40
0.8403154645766648
 40
0.8788472430309467
 40
0.9183046161536893
 40
0.9586885638270797
 40
1.0
 40
1.0
 40
1.0
 40
1.0
 10
14.99999999999998
 20
31.50000000000001
 30
0.0
 10
14.99906374565062
 20
31.52936361342223
 30
0.0
 10
14.99720023505276
 20
31.58780863409559
 30
0.0
 10
14.98175690770432
 20
31.67431309639212
 30
0.0
 10
14.95699926871569
 20
31.75880198500775
 30
0.0
 10
14.9220729548504
 20
31.84123854265041
 30
0.0
 10
14.87725221396963
 20
31.92159930651884
 30
0.0
 10
14.82250923896095
 20
31.99987926252459
 30
0.0
 10
14.75789423545736
 20
32.07608702544691
 30
0.0
 10
14.68342394572638
 20
32.15023886911207
 30
0.0
 10
14.59911238482215
 20
32.22235319811368
 30
0.0
 10
14.50496425786399
 20
32.29244711688526
 30
0.0
 10
14.40097997038268
 20
32.36053485512053
 30
0.0
 10
14.28715698139524
 20
32.4266274441574
 30
0.0
 10
14.1634914787445
 20
32.49073302529198
 30
0.0
 10
14.02997922873737
 20
32.55285738790202
 30
0.0
 10
13.88661610504714
 20
32.61300452171628
 30
0.0
 10
13.73339833457951
 20
32.67117709304027
 30
0.0
 10
13.57032259566575
 20
32.7273768212132
 30
0.0
 10
13.39738602932145
 20
32.78160476165704
 30
0.0
 10
13.21458620872527
 20
32.83386151214446
 30
0.0
 10
13.02192109072775
 20
32.88414736006137
 30
0.0
 10
12.81938896294026
 20
32.93246238606311
 30
0.0
 10
12.60698839304663
 20
32.97880653626832
 30
0.0
 10
12.38471818331477
 20
33.02317967209728
 30
0.0
 10
12.15257733124251
 20
33.06558160438456
 30
0.0
 10
11.910564996255
 20
33.10601211650288
 30
0.0
 10
11.6586804719029
 20
33.14447097984879
 30
0.0
 10
11.39692316284381
 20
33.18095796403896
 30
0.0
 10
11.12529256587437
 20
33.2154728434614
 30
0.0
 10
10.84378825433811
 20
33.24801540132506
 30
0.0
 10
10.5524098653173
 20
33.27858543200704
 30
0.0
 10
10.2511570891078
 20
33.30718274224232
 30
0.0
 10
9.940029660558931
 20
33.33380715157433
 30
0.0
 10
9.619027351934985
 20
33.35845849219525
 30
0.0
 10
9.288149967017487
 20
33.38113660889651
 30
0.0
 10
8.94739733622052
 20
33.40184135715523
 30
0.0
 10
8.596769312533146
 20
33.42057260763218
 30
0.0
 10
8.23626576814177
 20
33.43733022524521
 30
0.0
 10
7.865886591599866
 20
33.45211414691742
 30
0.0
 10
7.485631685489805
 20
33.46492407595063
 30
0.0
 10
7.095500964327581
 20
33.47576066441972
 30
0.0
 10
6.695494353301503
 20
33.4846209259224
 30
0.0
 10
6.285611785248139
 20
33.4915160001643
 30
0.0
 10
5.865853205669116
 20
33.49640240121145
 30
0.0
 10
5.436218547662789
 20
33.49944786575388
 30
0.0
 10
5.146502565356916
 20
33.49981456752835
 30
0.0
 10
4.99999999999998
 20
33.50000000000001
 30
0.0
  0
SPLINE
  5
8A
330
1F
100
AcDbEntity
  8
0
  6
Continuous
 62
     7
370
    25
100
AcDbSpline
210
0.0
220
0.0
230
1.0
 70
     8
 71
     3
 72
    28
 73
    24
 74
     0
 42
0.00000001
 43
0.00000001
 40
0.0
 40
0.0
 40
0.0
 40
0.0
 40
0.0874031611114049
 40
0.1705516025433299
 40
0.2494554898564126
 40
0.3241267221613528
 40
0.394579343227048
 40
0.4608300796484635
 40
0.5228990551354057
 40
0.5808107529164475
 40
0.6345953338112744
 40
0.6842904736586176
 40
0.7299439739310731
 40
0.7716175462530211
 40
0.8093924129408525
 40
0.8433777606183386
 40
0.8737237082967539
 40
0.9006413345759787
 40
0.9244331409130397
 40
0.945536478879289
 40
0.9645748894778833
 40
0.9823900701726982
 40
0.9999999999999999
 40
0.9999999999999999
 40
0.9999999999999999
 40
0.9999999999999999
 10
33.49999999999997
 20
5.000000000000006
 30
0.0
 10
33.49917389667502
 20
5.309906960113207
 30
0.0
 10
33.49756190410926
 20
5.914634844259968
 30
0.0
 10
33.48374915451706
 20
6.799046419142007
 30
0.0
 10
33.46145992494394
 20
7.638119034210338
 30
0.0
 10
33.42998947907425
 20
8.43185631847551
 30
0.0
 10
33.38951772100615
 20
9.180262608321067
 30
0.0
 10
33.34000704314345
 20
9.883343821589825
 30
0.0
 10
33.28147459614201
 20
10.54110795152334
 30
0.0
 10
33.21392553348841
 20
11.15356599898812
 30
0.0
 10
33.13736940311091
 20
11.72073329192232
 30
0.0
 10
33.05181595608514
 20
12.24263158642959
 30
0.0
 10
32.95727531149807
 20
12.71929195214778
 30
0.0
 10
32.85375559078885
 20
13.15076016493694
 30
0.0
 10
32.7412579376096
 20
13.53710138496588
 30
0.0
 10
32.61976506750236
 20
13.87841696877953
 30
0.0
 10
32.48921698349108
 20
14.17483151528393
 30
0.0
 10
32.34946067306251
 20
14.42656733072641
 30
0.0
 10
32.20016486472591
 20
14.63367247174553
 30
0.0
 10
32.04071307056174
 20
14.79656590687974
 30
0.0
 10
31.87030411896398
 20
14.91336511774726
 30
0.0
 10
31.68859375459907
 20
14.9869456206823
 30
0.0
 10
31.56262129268639
 20
14.99566538080844
 30
0.0
 10
31.49999999999997
 20
15.00000000000001
 30
0.0
  0
SPLINE
  5
8E
330
1F
100
AcDbEntity
  8
0
  6
Continuous
 62
     7
370
    25
100
AcDbSpline
210
0.0
220
0.0
230
1.0
 70
     8
 71
     3
 72
    52
 73
    48
 74
     0
 42
0.00000001
 43
0.00000001
 40
0.0
 40
0.0
 40
0.0
 40
0.0
 40
0.0082752946480384
 40
0.0164710575578118
 40
0.0246962111051281
 40
0.0330585292719387
 40
0.0416606320620347
 40
0.0505968825476751
 40
0.0599515373310007
 40
0.0697981180842685
 40
0.080199720460268
 40
0.0912099023156473
 40
0.1028738411885563
 40
0.1152295454831641
 40
0.1283089942575932
 40
0.1421391470012335
 40
0.1567428062215883
 40
0.1721393380836158
 40
0.188345266541281
 40
0.2053747596051927
 40
0.2232400260150464
 40
0.2419516386344492
 40
0.2615187984381738
 40
0.2819495505484789
 40
0.3032509616248213
 40
0.3254292660896864
 40
0.3484899871771011
 40
0.3724380375831186
 40
0.3972778035334876
 40
0.4230132153182526
 40
0.4496478067368587
 40
0.4771847654175678
 40
0.5056269755949152
 40
0.5349770546272464
 40
0.5652373842962723
 40
0.5964101377388942
 40
0.6284973027079783
 40
0.6615007017352645
 40
0.6954220096699193
 40
0.7302627689854597
 40
0.7660244031820612
 40
0.8027082285575853
 40
0.8403154645766646
 40
0.8788472430309465
 40
0.9183046161536891
 40
0.9586885638270796
 40
1.0
 40
1.0
 40
1.0
 40
1.0
 10
31.49999999999997
 20
-14.99999999999999
 30
0.0
 10
31.52936361342219
 20
-14.99906374565063
 30
0.0
 10
31.58780863409554
 20
-14.99720023505277
 30
0.0
 10
31.6743130963921
 20
-14.98175690770434
 30
0.0
 10
31.7588019850077
 20
-14.9569992687157
 30
0.0
 10
31.84123854265036
 20
-14.92207295485041
 30
0.0
 10
31.9215993065188
 20
-14.87725221396963
 30
0.0
 10
31.99987926252455
 20
-14.82250923896096
 30
0.0
 10
32.07608702544688
 20
-14.75789423545736
 30
0.0
 10
32.15023886911203
 20
-14.68342394572639
 30
0.0
 10
32.22235319811364
 20
-14.59911238482215
 30
0.0
 10
32.29244711688523
 20
-14.504964257864
 30
0.0
 10
32.36053485512048
 20
-14.40097997038268
 30
0.0
 10
32.42662744415735
 20
-14.28715698139525
 30
0.0
 10
32.49073302529195
 20
-14.1634914787445
 30
0.0
 10
32.55285738790199
 20
-14.02997922873738
 30
0.0
 10
32.61300452171623
 20
-13.88661610504715
 30
0.0
 10
32.67117709304026
 20
-13.73339833457953
 30
0.0
 10
32.72737682121313
 20
-13.57032259566575
 30
0.0
 10
32.78160476165701
 20
-13.39738602932147
 30
0.0
 10
32.83386151214442
 20
-13.21458620872528
 30
0.0
 10
32.88414736006133
 20
-13.02192109072775
 30
0.0
 10
32.93246238606307
 20
-12.81938896294026
 30
0.0
 10
32.97880653626827
 20
-12.60698839304664
 30
0.0
 10
33.02317967209726
 20
-12.38471818331478
 30
0.0
 10
33.0655816043845
 20
-12.15257733124252
 30
0.0
 10
33.10601211650286
 20
-11.91056499625501
 30
0.0
 10
33.14447097984873
 20
-11.65868047190292
 30
0.0
 10
33.18095796403892
 20
-11.39692316284382
 30
0.0
 10
33.21547284346136
 20
-11.12529256587439
 30
0.0
 10
33.24801540132501
 20
-10.84378825433812
 30
0.0
 10
33.27858543200702
 20
-10.55240986531731
 30
0.0
 10
33.30718274224228
 20
-10.2511570891078
 30
0.0
 10
33.33380715157431
 20
-9.940029660558947
 30
0.0
 10
33.3584584921952
 20
-9.619027351934992
 30
0.0
 10
33.38113660889646
 20
-9.2881499670175
 30
0.0
 10
33.4018413571552
 20
-8.94739733622053
 30
0.0
 10
33.42057260763213
 20
-8.596769312533157
 30
0.0
 10
33.43733022524519
 20
-8.236265768141783
 30
0.0
 10
33.45211414691738
 20
-7.865886591599874
 30
0.0
 10
33.46492407595059
 20
-7.48563168548982
 30
0.0
 10
33.47576066441967
 20
-7.095500964327587
 30
0.0
 10
33.48462092592236
 20
-6.695494353301517
 30
0.0
 10
33.49151600016427
 20
-6.285611785248149
 30
0.0
 10
33.49640240121139
 20
-5.865853205669125
 30
0.0
 10
33.49944786575386
 20
-5.4362185476628
 30
0.0
 10
33.4998145675283
 20
-5.146502565356926
 30
0.0
 10
33.49999999999997
 20
-4.999999999999991
 30
0.0
  0
SPLINE
  5
92
330
1F
100
AcDbEntity
  8
0
  6
Continuous
 62
     7
370
    25
100
AcDbSpline
210
0.0
220
0.0
230
1.0
 70
     8
 71
     3
 72
    28
 73
    24
 74
     0
 42
0.00000001
 43
0.00000001
 40
0.0
 40
0.0
 40
0.0
 40
0.0
 40
0.0874031611114049
 40
0.17055160254333
 40
0.2494554898564126
 40
0.324126722161353
 40
0.3945793432270481
 40
0.4608300796484635
 40
0.5228990551354057
 40
0.5808107529164476
 40
0.6345953338112744
 40
0.6842904736586175
 40
0.729943973931073
 40
0.7716175462530211
 40
0.8093924129408525
 40
0.8433777606183388
 40
0.8737237082967539
 40
0.9006413345759787
 40
0.9244331409130397
 40
0.9455364788792892
 40
0.9645748894778835
 40
0.9823900701726984
 40
0.9999999999999999
 40
0.9999999999999999
 40
0.9999999999999999
 40
0.9999999999999999
 10
4.999999999999984
 20
-33.49999999999999
 30
0.0
 10
5.309906960113185
 20
-33.49917389667505
 30
0.0
 10
5.914634844259946
 20
-33.49756190410928
 30
0.0
 10
6.799046419141986
 20
-33.48374915451709
 30
0.0
 10
7.638119034210317
 20
-33.46145992494396
 30
0.0
 10
8.431856318475488
 20
-33.42998947907427
 30
0.0
 10
9.180262608321048
 20
-33.38951772100616
 30
0.0
 10
9.8833438215898
 20
-33.34000704314347
 30
0.0
 10
10.54110795152332
 20
-33.28147459614203
 30
0.0
 10
11.1535659989881
 20
-33.21392553348843
 30
0.0
 10
11.7207332919223
 20
-33.13736940311095
 30
0.0
 10
12.24263158642957
 20
-33.05181595608514
 30
0.0
 10
12.71929195214775
 20
-32.95727531149808
 30
0.0
 10
13.15076016493692
 20
-32.85375559078887
 30
0.0
 10
13.53710138496585
 20
-32.7412579376096
 30
0.0
 10
13.87841696877951
 20
-32.61976506750239
 30
0.0
 10
14.17483151528391
 20
-32.48921698349112
 30
0.0
 10
14.42656733072639
 20
-32.34946067306251
 30
0.0
 10
14.63367247174551
 20
-32.20016486472594
 30
0.0
 10
14.79656590687972
 20
-32.04071307056176
 30
0.0
 10
14.91336511774723
 20
-31.870304118964
 30
0.0
 10
14.98694562068227
 20
-31.68859375459908
 30
0.0
 10
14.99566538080842
 20
-31.56262129268642
 30
0.0
 10
14.99999999999998
 20
-31.49999999999999
 30
0.0
  0
SPLINE
  5
96
330
1F
100
AcDbEntity
  8
0
  6
Continuous
 62
     7
370
    25
100
AcDbSpline
210
0.0
220
0.0
230
1.0
 70
     8
 71
     3
 72
    52
 73
    48
 74
     0
 42
0.00000001
 43
0.00000001
 40
0.0
 40
0.0
 40
0.0
 40
0.0
 40
0.0082752946480384
 40
0.0164710575578119
 40
0.0246962111051281
 40
0.0330585292719387
 40
0.0416606320620348
 40
0.0505968825476751
 40
0.0599515373310008
 40
0.0697981180842686
 40
0.0801997204602679
 40
0.0912099023156469
 40
0.1028738411885564
 40
0.1152295454831636
 40
0.1283089942575933
 40
0.1421391470012333
 40
0.1567428062215881
 40
0.1721393380836158
 40
0.1883452665412808
 40
0.2053747596051926
 40
0.2232400260150463
 40
0.2419516386344489
 40
0.2615187984381734
 40
0.2819495505484784
 40
0.3032509616248211
 40
0.3254292660896863
 40
0.3484899871771009
 40
0.3724380375831184
 40
0.3972778035334875
 40
0.4230132153182524
 40
0.4496478067368586
 40
0.4771847654175676
 40
0.505626975594915
 40
0.5349770546272463
 40
0.5652373842962722
 40
0.5964101377388943
 40
0.6284973027079782
 40
0.6615007017352644
 40
0.6954220096699194
 40
0.7302627689854598
 40
0.766024403182061
 40
0.8027082285575853
 40
0.8403154645766646
 40
0.8788472430309465
 40
0.918304616153689
 40
0.9586885638270795
 40
1.0
 40
1.0
 40
1.0
 40
1.0
 10
-15.00000000000002
 20
-31.49999999999999
 30
0.0
 10
-14.99906374565066
 20
-31.52936361342221
 30
0.0
 10
-14.9972002350528
 20
-31.58780863409556
 30
0.0
 10
-14.98175690770437
 20
-31.67431309639212
 30
0.0
 10
-14.95699926871572
 20
-31.75880198500772
 30
0.0
 10
-14.92207295485045
 20
-31.84123854265041
 30
0.0
 10
-14.87725221396966
 20
-31.92159930651882
 30
0.0
 10
-14.82250923896099
 20
-31.99987926252457
 30
0.0
 10
-14.75789423545739
 20
-32.07608702544691
 30
0.0
 10
-14.68342394572642
 20
-32.15023886911205
 30
0.0
 10
-14.59911238482218
 20
-32.22235319811366
 30
0.0
 10
-14.50496425786403
 20
-32.29244711688525
 30
0.0
 10
-14.40097997038271
 20
-32.36053485512049
 30
0.0
 10
-14.28715698139528
 20
-32.42662744415738
 30
0.0
 10
-14.16349147874454
 20
-32.49073302529197
 30
0.0
 10
-14.0299792287374
 20
-32.55285738790199
 30
0.0
 10
-13.88661610504717
 20
-32.61300452171625
 30
0.0
 10
-13.73339833457956
 20
-32.67117709304028
 30
0.0
 10
-13.57032259566578
 20
-32.72737682121314
 30
0.0
 10
-13.3973860293215
 20
-32.78160476165704
 30
0.0
 10
-13.2145862087253
 20
-32.83386151214442
 30
0.0
 10
-13.02192109072778
 20
-32.88414736006135
 30
0.0
 10
-12.8193889629403
 20
-32.93246238606309
 30
0.0
 10
-12.60698839304667
 20
-32.97880653626827
 30
0.0
 10
-12.38471818331481
 20
-33.02317967209727
 30
0.0
 10
-12.15257733124255
 20
-33.06558160438452
 30
0.0
 10
-11.91056499625503
 20
-33.10601211650287
 30
0.0
 10
-11.65868047190294
 20
-33.14447097984876
 30
0.0
 10
-11.39692316284385
 20
-33.18095796403895
 30
0.0
 10
-11.12529256587442
 20
-33.21547284346138
 30
0.0
 10
-10.84378825433815
 20
-33.24801540132502
 30
0.0
 10
-10.55240986531734
 20
-33.27858543200703
 30
0.0
 10
-10.25115708910783
 20
-33.30718274224228
 30
0.0
 10
-9.940029660558974
 20
-33.33380715157432
 30
0.0
 10
-9.61902735193502
 20
-33.35845849219522
 30
0.0
 10
-9.288149967017523
 20
-33.38113660889647
 30
0.0
 10
-8.94739733622056
 20
-33.40184135715521
 30
0.0
 10
-8.596769312533182
 20
-33.42057260763216
 30
0.0
 10
-8.236265768141811
 20
-33.4373302252452
 30
0.0
 10
-7.865886591599904
 20
-33.4521141469174
 30
0.0
 10
-7.485631685489845
 20
-33.46492407595059
 30
0.0
 10
-7.095500964327616
 20
-33.4757606644197
 30
0.0
 10
-6.695494353301543
 20
-33.48462092592236
 30
0.0
 10
-6.285611785248177
 20
-33.4915160001643
 30
0.0
 10
-5.865853205669151
 20
-33.49640240121142
 30
0.0
 10
-5.436218547662828
 20
-33.49944786575386
 30
0.0
 10
-5.146502565356953
 20
-33.49981456752833
 30
0.0
 10
-5.000000000000019
 20
-33.49999999999999
 30
0.0
  0
SPLINE
  5
9A
330
1F
100
AcDbEntity
  8
0
  6
Continuous
 62
     7
370
    25
100
AcDbSpline
210
0.0
220
0.0
230
1.0
 70
     8
 71
     3
 72
    28
 73
    24
 74
     0
 42
0.00000001
 43
0.00000001
 40
0.0
 40
0.0
 40
0.0
 40
0.0
 40
0.0874031611114049
 40
0.17055160254333
 40
0.2494554898564127
 40
0.324126722161353
 40
0.3945793432270482
 40
0.4608300796484637
 40
0.5228990551354059
 40
0.5808107529164478
 40
0.6345953338112748
 40
0.6842904736586177
 40
0.7299439739310738
 40
0.7716175462530213
 40
0.8093924129408527
 40
0.843377760618339
 40
0.8737237082967544
 40
0.9006413345759788
 40
0.9244331409130401
 40
0.9455364788792897
 40
0.9645748894778834
 40
0.9823900701726977
 40
1.0
 40
1.0
 40
1.0
 40
1.0
 10
-33.50000000000003
 20
-4.999999999999993
 30
0.0
 10
-33.49917389667509
 20
-5.309906960113194
 30
0.0
 10
-33.49756190410933
 20
-5.914634844259956
 30
0.0
 10
-33.48374915451711
 20
-6.799046419141992
 30
0.0
 10
-33.46145992494399
 20
-7.638119034210324
 30
0.0
 10
-33.4299894790743
 20
-8.431856318475496
 30
0.0
 10
-33.38951772100621
 20
-9.180262608321055
 30
0.0
 10
-33.34000704314351
 20
-9.883343821589811
 30
0.0
 10
-33.28147459614206
 20
-10.54110795152333
 30
0.0
 10
-33.21392553348846
 20
-11.15356599898811
 30
0.0
 10
-33.13736940311097
 20
-11.7207332919223
 30
0.0
 10
-33.05181595608519
 20
-12.24263158642959
 30
0.0
 10
-32.95727531149812
 20
-12.71929195214776
 30
0.0
 10
-32.85375559078891
 20
-13.15076016493693
 30
0.0
 10
-32.74125793760967
 20
-13.53710138496587
 30
0.0
 10
-32.61976506750241
 20
-13.87841696877952
 30
0.0
 10
-32.48921698349115
 20
-14.17483151528392
 30
0.0
 10
-32.34946067306259
 20
-14.42656733072641
 30
0.0
 10
-32.20016486472596
 20
-14.63367247174551
 30
0.0
 10
-32.04071307056179
 20
-14.79656590687972
 30
0.0
 10
-31.87030411896405
 20
-14.91336511774725
 30
0.0
 10
-31.68859375459912
 20
-14.98694562068228
 30
0.0
 10
-31.56262129268647
 20
-14.99566538080843
 30
0.0
 10
-31.50000000000004
 20
-14.99999999999999
 30
0.0
  0
SPLINE
  5
9D
330
1F
100
AcDbEntity
  8
0
  6
Continuous
 62
     7
370
    25
100
AcDbSpline
210
0.0
220
0.0
230
1.0
 70
     8
 71
     3
 72
    28
 73
    24
 74
     0
 42
0.00000001
 43
0.00000001
 40
0.0
 40
0.0
 40
0.0
 40
0.0
 40
0.0874031611114049
 40
0.17055160254333
 40
0.2494554898564127
 40
0.3241267221613529
 40
0.3945793432270479
 40
0.4608300796484636
 40
0.5228990551354057
 40
0.5808107529164473
 40
0.6345953338112743
 40
0.6842904736586174
 40
0.7299439739310731
 40
0.7716175462530211
 40
0.8093924129408526
 40
0.8433777606183388
 40
0.8737237082967543
 40
0.9006413345759787
 40
0.9244331409130399
 40
0.9455364788792895
 40
0.9645748894778834
 40
0.9823900701726976
 40
1.0
 40
1.0
 40
1.0
 40
1.0
 10
-5.000000000000017
 20
33.50000000000001
 30
0.0
 10
-5.309906960113218
 20
33.49917389667506
 30
0.0
 10
-5.914634844259976
 20
33.49756190410929
 30
0.0
 10
-6.799046419142018
 20
33.4837491545171
 30
0.0
 10
-7.638119034210349
 20
33.46145992494397
 30
0.0
 10
-8.43185631847552
 20
33.42998947907429
 30
0.0
 10
-9.18026260832108
 20
33.38951772100619
 30
0.0
 10
-9.883343821589833
 20
33.34000704314348
 30
0.0
 10
-10.54110795152335
 20
33.28147459614205
 30
0.0
 10
-11.15356599898814
 20
33.21392553348845
 30
0.0
 10
-11.72073329192233
 20
33.13736940311096
 30
0.0
 10
-12.24263158642961
 20
33.05181595608518
 30
0.0
 10
-12.71929195214778
 20
32.95727531149809
 30
0.0
 10
-13.15076016493695
 20
32.85375559078889
 30
0.0
 10
-13.5371013849659
 20
32.74125793760964
 30
0.0
 10
-13.87841696877954
 20
32.61976506750239
 30
0.0
 10
-14.17483151528395
 20
32.48921698349114
 30
0.0
 10
-14.42656733072642
 20
32.34946067306253
 30
0.0
 10
-14.63367247174554
 20
32.20016486472597
 30
0.0
 10
-14.79656590687974
 20
32.04071307056176
 30
0.0
 10
-14.91336511774727
 20
31.87030411896404
 30
0.0
 10
-14.98694562068231
 20
31.68859375459911
 30
0.0
 10
-14.99566538080846
 20
31.56262129268644
 30
0.0
 10
-15.00000000000002
 20
31.50000000000001
 30
0.0
  0
LINE
  5
9F
330
1F
100
AcDbEntity
  8
0
  6
Continuous
 62
     7
370
    25
100
AcDbLine
 10
-20.0
 20
15.0
 30
0.0
 11
-31.5
 21
15.0
 31
0.0
  0
LINE
  5
A0
330
1F
100
AcDbEntity
  8
0
  6
Continuous
 62
     7
370
    25
100
AcDbLine
 10
-15.0
 20
31.5
 30
0.0
 11
-15.0
 21
20.0
 31
0.0
  0
LINE
  5
A1
330
1F
100
AcDbEntity
  8
0
  6
Continuous
 62
     7
370
    25
100
AcDbLine
 10
-3.0
 20
31.5
 30
0.0
 11
3.0
 21
31.5
 31
0.0
  0
LINE
  5
A2
330
1F
100
AcDbEntity
  8
0
  6
Continuous
 62
     7
370
    25
100
AcDbLine
 10
15.0
 20
20.0
 30
0.0
 11
15.0
 21
31.5
 31
0.0
  0
LINE
  5
A3
330
1F
100
AcDbEntity
  8
0
  6
Continuous
 62
     7
370
    25
100
AcDbLine
 10
31.5
 20
15.0
 30
0.0
 11
20.0
 21
15.0
 31
0.0
  0
LINE
  5
A4
330
1F
100
AcDbEntity
  8
0
  6
Continuous
 62
     7
370
    25
100
AcDbLine
 10
31.5
 20
3.0
 30
0.0
 11
31.5
 21
-3.0
 31
0.0
  0
LINE
  5
A5
330
1F
100
AcDbEntity
  8
0
  6
Continuous
 62
     7
370
    25
100
AcDbLine
 10
20.0
 20
-15.0
 30
0.0
 11
31.5
 21
-15.0
 31
0.0
  0
LINE
  5
A6
330
1F
100
AcDbEntity
  8
0
  6
Continuous
 62
     7
370
    25
100
AcDbLine
 10
15.0
 20
-31.5
 30
0.0
 11
15.0
 21
-20.0
 31
0.0
  0
LINE
  5
A7
330
1F
100
AcDbEntity
  8
0
  6
Continuous
 62
     7
370
    25
100
AcDbLine
 10
3.0
 20
-31.5
 30
0.0
 11
-3.0
 21
-31.5
 31
0.0
  0
LINE
  5
A8
330
1F
100
AcDbEntity
  8
0
  6
Continuous
 62
     7
370
    25
100
AcDbLine
 10
-15.0
 20
-20.0
 30
0.0
 11
-15.0
 21
-31.5
 31
0.0
  0
LINE
  5
A9
330
1F
100
AcDbEntity
  8
0
  6
Continuous
 62
     7
370
    25
100
AcDbLine
 10
-31.5
 20
-15.0
 30
0.0
 11
-20.0
 21
-15.0
 31
0.0
  0
LINE
  5
AA
330
1F
100
AcDbEntity
  8
0
  6
Continuous
 62
     7
370
    25
100
AcDbLine
 10
-31.5
 20
-3.0
 30
0.0
 11
-31.5
 21
3.0
 31
0.0
  0
ARC
  5
AB
330
1F
100
AcDbEntity
  8
0
  6
Continuous
 62
     7
370
    25
100
AcDbCircle
 10
-33.5
 20
3.0
 30
0.0
 40
2.000000000000008
100
AcDbArc
 50
0.0
 51
90.0
  0
ARC
  5
AC
330
1F
100
AcDbEntity
  8
0
  6
Continuous
 62
     7
370
    25
100
AcDbCircle
 10
-20.0
 20
20.0
 30
0.0
 40
4.999999999999998
100
AcDbArc
 50
270.0
 51
0.0
  0
ARC
  5
AD
330
1F
100
AcDbEntity
  8
0
  6
Continuous
 62
     7
370
    25
100
AcDbCircle
 10
3.0
 20
33.5
 30
0.0
 40
2.000000000000007
100
AcDbArc
 50
270.0
 51
0.0
  0
ARC
  5
AE
330
1F
100
AcDbEntity
  8
0
  6
Continuous
 62
     7
370
    25
100
AcDbCircle
 10
20.0
 20
20.0
 30
0.0
 40
5.000000000000005
100
AcDbArc
 50
180.0
 51
270.0
  0
ARC
  5
AF
330
1F
100
AcDbEntity
  8
0
  6
Continuous
 62
     7
370
    25
100
AcDbCircle
 10
33.5
 20
3.0
 30
0.0
 40
2.0
100
AcDbArc
 50
90.0
 51
180.0
  0
ARC
  5
B0
330
1F
100
AcDbEntity
  8
0
  6
Continuous
 62
     7
370
    25
100
AcDbCircle
 10
33.5
 20
-3.0
 30
0.0
 40
2.000000000000007
100
AcDbArc
 50
180.0
 51
270.0
  0
ARC
  5
B1
330
1F
100
AcDbEntity
  8
0
  6
Continuous
 62
     7
370
    25
100
AcDbCircle
 10
20.0
 20
-20.0
 30
0.0
 40
5.000000000000004
100
AcDbArc
 50
90.0
 51
180.0
  0
ARC
  5
B2
330
1F
100
AcDbEntity
  8
0
  6
Continuous
 62
     7
370
    25
100
AcDbCircle
 10
3.0
 20
-33.5
 30
0.0
 40
2.000000000000008
100
AcDbArc
 50
0.0
 51
90.0
  0
ARC
  5
B3
330
1F
100
AcDbEntity
  8
0
  6
Continuous
 62
     7
370
    25
100
AcDbCircle
 10
-3.0
 20
-33.5
 30
0.0
 40
2.000000000000007
100
AcDbArc
 50
90.0
 51
180.0
  0
ARC
  5
B4
330
1F
100
AcDbEntity
  8
0
  6
Continuous
 62
     7
370
    25
100
AcDbCircle
 10
-20.0
 20
-20.0
 30
0.0
 40
5.000000000000002
100
AcDbArc
 50
0.0
 51
90.0
  0
ARC
  5
B5
330
1F
100
AcDbEntity
  8
0
  6
Continuous
 62
     7
370
    25
100
AcDbCircle
 10
-33.5
 20
-3.0
 30
0.0
 40
2.0
100
AcDbArc
 50
270.0
 51
0.0
  0
ARC
  5
B6
330
1F
100
AcDbEntity
  8
0
  6
Continuous
 62
     7
370
    25
100
AcDbCircle
 10
-3.0
 20
33.5
 30
0.0
 40
2.000000000000007
100
AcDbArc
 50
180.0
 51
270.0
  0
ENDSEC
  0
SECTION
  2
OBJECTS
  0
DICTIONARY
  5
C
330
0
100
AcDbDictionary
281
     1
  3
ACAD_GROUP
350
D
  3
ACAD_LAYOUT
350
1A
  3
ACAD_MLINESTYLE
350
17
  3
ACAD_PLOTSETTINGS
350
19
  3
ACAD_PLOTSTYLENAME
350
E
  3
ACAD_SCALELIST
350
47
  3
DWGPROPS
350
B7
  0
DICTIONARY
  5
D
102
{ACAD_REACTORS
330
C
102
}
330
C
100
AcDbDictionary
281
     1
  0
DICTIONARY
  5
1A
102
{ACAD_REACTORS
330
C
102
}
330
C
100
AcDbDictionary
281
     1
  3
Layout1
350
1E
  3
Layout2
350
26
  3
Model
350
22
  0
DICTIONARY
  5
17
102
{ACAD_REACTORS
330
C
102
}
330
C
100
AcDbDictionary
281
     1
  3
Standard
350
18
  0
DICTIONARY
  5
19
102
{ACAD_REACTORS
330
C
102
}
330
C
100
AcDbDictionary
281
     1
  0
ACDBDICTIONARYWDFLT
  5
E
102
{ACAD_REACTORS
330
C
102
}
330
C
100
AcDbDictionary
281
     1
  3
Normal
350
F
100
AcDbDictionaryWithDefault
340
F
  0
DICTIONARY
  5
47
102
{ACAD_REACTORS
330
C
102
}
330
C
100
AcDbDictionary
281
     1
  3
A0
350
48
  3
A1
350
49
  3
A2
350
4A
  3
A3
350
4B
  3
A4
350
4C
  3
A5
350
4D
  3
A6
350
4E
  3
A7
350
4F
  3
A8
350
50
  3
A9
350
51
  3
B0
350
52
  3
B1
350
53
  3
B2
350
54
  3
B3
350
55
  3
B4
350
56
  3
B5
350
57
  3
B6
350
58
  3
B7
350
59
  3
B8
350
5A
  3
B9
350
5B
  3
C0
350
5C
  3
C1
350
5D
  3
C2
350
5E
  3
C3
350
5F
  3
C4
350
60
  3
C5
350
61
  3
C6
350
62
  3
C7
350
63
  3
C8
350
64
  3
C9
350
65
  3
D0
350
66
  3
D1
350
67
  3
D2
350
68
  0
XRECORD
  5
B7
102
{ACAD_REACTORS
330
C
102
}
330
C
100
AcDbXrecord
280
     1
  1
DWGPROPS COOKIE
  2

  3

  4

  6

  7

  8
3D_PRINDER
  9

300
=
301
=
302
=
303
=
304
=
305
=
306
=
307
=
308
=
309
=
 40
0.0
 41
2460383.457588947
 42
2460383.457642627
  1

 90
        0
  0
LAYOUT
  5
1E
102
{ACAD_REACTORS
330
1A
102
}
330
1A
100
AcDbPlotSettings
  1

  2
none_device
  4

  6

 40
0.0
 41
0.0
 42
0.0
 43
0.0
 44
0.0
 45
0.0
 46
0.0
 47
0.0
 48
0.0
 49
0.0
140
0.0
141
0.0
142
1.0
143
1.0
 70
   688
 72
     1
 73
     0
 74
     5
  7

 75
    16
147
1.0
148
0.0
149
0.0
100
AcDbLayout
  1
Layout1
 70
     1
 71
     1
 10
0.0
 20
0.0
 11
420.0
 21
297.0
 12
0.0
 22
0.0
 32
0.0
 14
1.0000000000E+20
 24
1.0000000000E+20
 34
1.0000000000E+20
 15
-1.0000000000E+20
 25
-1.0000000000E+20
 35
-1.0000000000E+20
146
0.0
 13
0.0
 23
0.0
 33
0.0
 16
1.0
 26
0.0
 36
0.0
 17
0.0
 27
1.0
 37
0.0
 76
     0
330
1B
  0
LAYOUT
  5
26
102
{ACAD_REACTORS
330
1A
102
}
330
1A
100
AcDbPlotSettings
  1

  2
none_device
  4

  6

 40
0.0
 41
0.0
 42
0.0
 43
0.0
 44
0.0
 45
0.0
 46
0.0
 47
0.0
 48
0.0
 49
0.0
140
0.0
141
0.0
142
1.0
143
1.0
 70
   688
 72
     1
 73
     0
 74
     5
  7

 75
    16
147
1.0
148
0.0
149
0.0
100
AcDbLayout
  1
Layout2
 70
     1
 71
     2
 10
0.0
 20
0.0
 11
0.0
 21
0.0
 12
0.0
 22
0.0
 32
0.0
 14
0.0
 24
0.0
 34
0.0
 15
0.0
 25
0.0
 35
0.0
146
0.0
 13
0.0
 23
0.0
 33
0.0
 16
1.0
 26
0.0
 36
0.0
 17
0.0
 27
1.0
 37
0.0
 76
     0
330
23
  0
LAYOUT
  5
22
102
{ACAD_REACTORS
330
1A
102
}
330
1A
100
AcDbPlotSettings
  1

  2
none_device
  4
ANSI_A_(11.00_x_8.50_Inches)
  6

 40
6.35
 41
19.05
 42
6.35000508
 43
19.05000254
 44
279.4
 45
215.9
 46
133.34999746
 47
88.89999873
 48
0.0
 49
0.0
140
0.0
141
0.0
142
0.1255970149
143
1.0
 70
  1696
 72
     0
 73
     0
 74
     0
  7

 75
     0
147
0.0179189148
148
-1300.4909072572
149
0.0
100
AcDbLayout
  1
Model
 70
     1
 71
     0
 10
0.0
 20
0.0
 11
420.0
 21
297.0
 12
0.0
 22
0.0
 32
0.0
 14
-33.5
 24
-33.5
 34
0.0
 15
33.5
 25
33.5
 35
0.0
146
0.0
 13
0.0
 23
0.0
 33
0.0
 16
1.0
 26
0.0
 36
0.0
 17
0.0
 27
1.0
 37
0.0
 76
     0
330
1F
331
29
  0
MLINESTYLE
  5
18
102
{ACAD_REACTORS
330
17
102
}
330
17
100
AcDbMlineStyle
  2
Standard
 70
     0
  3

 62
   256
 51
90.0
 52
90.0
 71
     2
 49
0.5
 62
   256
  6
BYLAYER
 49
-0.5
 62
   256
  6
BYLAYER
  0
ACDBPLACEHOLDER
  5
F
102
{ACAD_REACTORS
330
E
102
}
330
E
  0
SCALE
  5
48
102
{ACAD_REACTORS
330
47
102
}
330
47
100
AcDbScale
 70
     0
300
1:1
140
1.0
141
1.0
290
     1
  0
SCALE
  5
49
102
{ACAD_REACTORS
330
47
102
}
330
47
100
AcDbScale
 70
     0
300
1:2
140
1.0
141
2.0
290
     0
  0
SCALE
  5
4A
102
{ACAD_REACTORS
330
47
102
}
330
47
100
AcDbScale
 70
     0
300
1:4
140
1.0
141
4.0
290
     0
  0
SCALE
  5
4B
102
{ACAD_REACTORS
330
47
102
}
330
47
100
AcDbScale
 70
     0
300
1:5
140
1.0
141
5.0
290
     0
  0
SCALE
  5
4C
102
{ACAD_REACTORS
330
47
102
}
330
47
100
AcDbScale
 70
     0
300
1:8
140
1.0
141
8.0
290
     0
  0
SCALE
  5
4D
102
{ACAD_REACTORS
330
47
102
}
330
47
100
AcDbScale
 70
     0
300
1:10
140
1.0
141
10.0
290
     0
  0
SCALE
  5
4E
102
{ACAD_REACTORS
330
47
102
}
330
47
100
AcDbScale
 70
     0
300
1:16
140
1.0
141
16.0
290
     0
  0
SCALE
  5
4F
102
{ACAD_REACTORS
330
47
102
}
330
47
100
AcDbScale
 70
     0
300
1:20
140
1.0
141
20.0
290
     0
  0
SCALE
  5
50
102
{ACAD_REACTORS
330
47
102
}
330
47
100
AcDbScale
 70
     0
300
1:30
140
1.0
141
30.0
290
     0
  0
SCALE
  5
51
102
{ACAD_REACTORS
330
47
102
}
330
47
100
AcDbScale
 70
     0
300
1:40
140
1.0
141
40.0
290
     0
  0
SCALE
  5
52
102
{ACAD_REACTORS
330
47
102
}
330
47
100
AcDbScale
 70
     0
300
1:50
140
1.0
141
50.0
290
     0
  0
SCALE
  5
53
102
{ACAD_REACTORS
330
47
102
}
330
47
100
AcDbScale
 70
     0
300
1:100
140
1.0
141
100.0
290
     0
  0
SCALE
  5
54
102
{ACAD_REACTORS
330
47
102
}
330
47
100
AcDbScale
 70
     0
300
2:1
140
2.0
141
1.0
290
     0
  0
SCALE
  5
55
102
{ACAD_REACTORS
330
47
102
}
330
47
100
AcDbScale
 70
     0
300
4:1
140
4.0
141
1.0
290
     0
  0
SCALE
  5
56
102
{ACAD_REACTORS
330
47
102
}
330
47
100
AcDbScale
 70
     0
300
8:1
140
8.0
141
1.0
290
     0
  0
SCALE
  5
57
102
{ACAD_REACTORS
330
47
102
}
330
47
100
AcDbScale
 70
     0
300
10:1
140
10.0
141
1.0
290
     0
  0
SCALE
  5
58
102
{ACAD_REACTORS
330
47
102
}
330
47
100
AcDbScale
 70
     0
300
100:1
140
100.0
141
1.0
290
     0
  0
SCALE
  5
59
102
{ACAD_REACTORS
330
47
102
}
330
47
100
AcDbScale
 70
     0
300
1/128" = 1'-0"
140
0.0078125
141
12.0
290
     0
  0
SCALE
  5
5A
102
{ACAD_REACTORS
330
47
102
}
330
47
100
AcDbScale
 70
     0
300
1/64" = 1'-0"
140
0.015625
141
12.0
290
     0
  0
SCALE
  5
5B
102
{ACAD_REACTORS
330
47
102
}
330
47
100
AcDbScale
 70
     0
300
1/32" = 1'-0"
140
0.03125
141
12.0
290
     0
  0
SCALE
  5
5C
102
{ACAD_REACTORS
330
47
102
}
330
47
100
AcDbScale
 70
     0
300
1/16" = 1'-0"
140
0.0625
141
12.0
290
     0
  0
SCALE
  5
5D
102
{ACAD_REACTORS
330
47
102
}
330
47
100
AcDbScale
 70
     0
300
3/32" = 1'-0"
140
0.09375
141
12.0
290
     0
  0
SCALE
  5
5E
102
{ACAD_REACTORS
330
47
102
}
330
47
100
AcDbScale
 70
     0
300
1/8" = 1'-0"
140
0.125
141
12.0
290
     0
  0
SCALE
  5
5F
102
{ACAD_REACTORS
330
47
102
}
330
47
100
AcDbScale
 70
     0
300
3/16" = 1'-0"
140
0.1875
141
12.0
290
     0
  0
SCALE
  5
60
102
{ACAD_REACTORS
330
47
102
}
330
47
100
AcDbScale
 70
     0
300
1/4" = 1'-0"
140
0.25
141
12.0
290
     0
  0
SCALE
  5
61
102
{ACAD_REACTORS
330
47
102
}
330
47
100
AcDbScale
 70
     0
300
3/8" = 1'-0"
140
0.375
141
12.0
290
     0
  0
SCALE
  5
62
102
{ACAD_REACTORS
330
47
102
}
330
47
100
AcDbScale
 70
     0
300
1/2" = 1'-0"
140
0.5
141
12.0
290
     0
  0
SCALE
  5
63
102
{ACAD_REACTORS
330
47
102
}
330
47
100
AcDbScale
 70
     0
300
3/4" = 1'-0"
140
0.75
141
12.0
290
     0
  0
SCALE
  5
64
102
{ACAD_REACTORS
330
47
102
}
330
47
100
AcDbScale
 70
     0
300
1" = 1'-0"
140
1.0
141
12.0
290
     0
  0
SCALE
  5
65
102
{ACAD_REACTORS
330
47
102
}
330
47
100
AcDbScale
 70
     0
300
1-1/2" = 1'-0"
140
1.5
141
12.0
290
     0
  0
SCALE
  5
66
102
{ACAD_REACTORS
330
47
102
}
330
47
100
AcDbScale
 70
     0
300
3" = 1'-0"
140
3.0
141
12.0
290
     0
  0
SCALE
  5
67
102
{ACAD_REACTORS
330
47
102
}
330
47
100
AcDbScale
 70
     0
300
6" = 1'-0"
140
6.0
141
12.0
290
     0
  0
SCALE
  5
68
102
{ACAD_REACTORS
330
47
102
}
330
47
100
AcDbScale
 70
     0
300
1'-0" = 1'-0"
140
12.0
141
12.0
290
     0
  0
ENDSEC
  0
EOF
