999
"DXF R12 Output" (www.mydxf.blogspot.com)
 0 
SECTION
 2 
HEADER
 9 
$ACADVER
 1 
AC1009
 9 
$EXTMIN
 10 
 0 
 20 
 0 
 9 
$EXTMAX
 10 
 8.5 
 20 
 11 
 0 
ENDSEC
 0 
SECTION
 2 
ENTITIES
0
POLYLINE
8
1
62
7
70
0
10
0.000000
20
0.000000
66
1
0
VERTEX
8
1
10
25.814199
20
318.457424
70
0
0
VERTEX
8
1
10
25.976159
20
318.038744
70
0
0
VERTEX
8
1
10
25.786488
20
317.720748
70
0
0
VERTEX
8
1
10
25.553931
20
317.614307
70
0
0
VERTEX
8
1
10
25.292645
20
317.647916
70
0
0
VERTEX
8
1
10
25.027455
20
317.880058
70
0
0
VERTEX
8
1
10
24.944618
20
317.989909
70
0
0
VERTEX
8
1
10
24.517044
20
317.667482
70
0
0
VERTEX
8
1
10
24.322058
20
317.926054
70
0
0
VERTEX
8
1
10
25.528730
20
318.835987
70
0
0
VERTEX
8
1
10
25.814199
20
318.457424
70
0
0
SEQEND
8
1
0
POLYLINE
8
1
62
7
70
0
10
0.000000
20
0.000000
66
1
0
VERTEX
8
1
10
25.596575
20
318.306572
70
0
0
VERTEX
8
1
10
25.512463
20
318.418113
70
0
0
VERTEX
8
1
10
25.157560
20
318.150486
70
0
0
VERTEX
8
1
10
25.222555
20
318.064295
70
0
0
VERTEX
8
1
10
25.390973
20
317.928844
70
0
0
VERTEX
8
1
10
25.581778
20
317.974638
70
0
0
VERTEX
8
1
10
25.668606
20
318.119646
70
0
0
VERTEX
8
1
10
25.596575
20
318.306572
70
0
0
VERTEX
8
1
10
25.596575
20
318.306572
70
0
0
SEQEND
8
1
0
POLYLINE
8
1
62
7
70
0
10
0.000000
20
0.000000
66
1
0
VERTEX
8
1
10
26.599240
20
317.416374
70
0
0
VERTEX
8
1
10
26.778030
20
316.996468
70
0
0
VERTEX
8
1
10
26.603278
20
316.679781
70
0
0
VERTEX
8
1
10
26.355013
20
316.590656
70
0
0
VERTEX
8
1
10
26.116086
20
316.654379
70
0
0
VERTEX
8
1
10
25.842437
20
315.909865
70
0
0
VERTEX
8
1
10
25.619414
20
316.205618
70
0
0
VERTEX
8
1
10
25.879846
20
316.823520
70
0
0
VERTEX
8
1
10
25.771521
20
316.967172
70
0
0
VERTEX
8
1
10
25.308457
20
316.617982
70
0
0
VERTEX
8
1
10
25.113471
20
316.876554
70
0
0
VERTEX
8
1
10
26.320142
20
317.786487
70
0
0
VERTEX
8
1
10
26.599240
20
317.416374
70
0
0
SEQEND
8
1
0
POLYLINE
8
1
62
7
70
0
10
0.000000
20
0.000000
66
1
0
VERTEX
8
1
10
26.394304
20
317.269788
70
0
0
VERTEX
8
1
10
26.314016
20
317.376259
70
0
0
VERTEX
8
1
10
25.970943
20
317.117553
70
0
0
VERTEX
8
1
10
26.051231
20
317.011082
70
0
0
VERTEX
8
1
10
26.213277
20
316.884081
70
0
0
VERTEX
8
1
10
26.393914
20
316.932812
70
0
0
VERTEX
8
1
10
26.476088
20
317.076961
70
0
0
VERTEX
8
1
10
26.394304
20
317.269788
70
0
0
VERTEX
8
1
10
26.394304
20
317.269788
70
0
0
SEQEND
8
1
0
POLYLINE
8
1
62
7
70
0
10
0.000000
20
0.000000
66
1
0
VERTEX
8
1
10
22.943623
20
314.647147
70
0
0
VERTEX
8
1
10
23.318095
20
314.399573
70
0
0
VERTEX
8
1
10
23.347582
20
314.030483
70
0
0
VERTEX
8
1
10
23.219608
20
313.809046
70
0
0
VERTEX
8
1
10
22.987119
20
313.685157
70
0
0
VERTEX
8
1
10
22.636491
20
313.720874
70
0
0
VERTEX
8
1
10
22.505347
20
313.762472
70
0
0
VERTEX
8
1
10
22.343435
20
313.252019
70
0
0
VERTEX
8
1
10
22.034742
20
313.349934
70
0
0
VERTEX
8
1
10
22.491681
20
314.790501
70
0
0
VERTEX
8
1
10
22.943623
20
314.647147
70
0
0
SEQEND
8
1
0
POLYLINE
8
1
62
7
70
0
10
0.000000
20
0.000000
66
1
0
VERTEX
8
1
10
22.853539
20
314.398147
70
0
0
VERTEX
8
1
10
22.720377
20
314.440385
70
0
0
VERTEX
8
1
10
22.585984
20
314.016689
70
0
0
VERTEX
8
1
10
22.688881
20
313.984051
70
0
0
VERTEX
8
1
10
22.904623
20
313.971134
70
0
0
VERTEX
8
1
10
23.033672
20
314.118951
70
0
0
VERTEX
8
1
10
23.020501
20
314.287452
70
0
0
VERTEX
8
1
10
22.853539
20
314.398147
70
0
0
VERTEX
8
1
10
22.853539
20
314.398147
70
0
0
SEQEND
8
1
0
POLYLINE
8
1
62
7
70
0
10
0.000000
20
0.000000
66
1
0
VERTEX
8
1
10
23.852600
20
312.773321
70
0
0
VERTEX
8
1
10
23.543907
20
312.871236
70
0
0
VERTEX
8
1
10
23.919570
20
314.055568
70
0
0
VERTEX
8
1
10
23.530173
20
314.179082
70
0
0
VERTEX
8
1
10
23.611449
20
314.435317
70
0
0
VERTEX
8
1
10
24.698936
20
314.090373
70
0
0
VERTEX
8
1
10
24.617660
20
313.834138
70
0
0
VERTEX
8
1
10
24.228263
20
313.957652
70
0
0
VERTEX
8
1
10
23.852600
20
312.773321
70
0
0
SEQEND
8
1
0
POLYLINE
8
1
62
7
70
0
10
0.000000
20
0.000000
66
1
0
VERTEX
8
1
10
25.350620
20
313.883663
70
0
0
VERTEX
8
1
10
25.739524
20
313.644834
70
0
0
VERTEX
8
1
10
25.780416
20
313.285450
70
0
0
VERTEX
8
1
10
25.629609
20
313.069035
70
0
0
VERTEX
8
1
10
25.397912
20
312.982645
70
0
0
VERTEX
8
1
10
25.605894
20
312.217187
70
0
0
VERTEX
8
1
10
25.252814
20
312.329182
70
0
0
VERTEX
8
1
10
25.107367
20
312.983759
70
0
0
VERTEX
8
1
10
24.935871
20
313.038157
70
0
0
VERTEX
8
1
10
24.760519
20
312.485335
70
0
0
VERTEX
8
1
10
24.451827
20
312.583250
70
0
0
VERTEX
8
1
10
24.908765
20
314.023816
70
0
0
VERTEX
8
1
10
25.350620
20
313.883663
70
0
0
SEQEND
8
1
0
POLYLINE
8
1
62
7
70
0
10
0.000000
20
0.000000
66
1
0
VERTEX
8
1
10
25.268411
20
313.645488
70
0
0
VERTEX
8
1
10
25.141302
20
313.685807
70
0
0
VERTEX
8
1
10
25.011388
20
313.276234
70
0
0
VERTEX
8
1
10
25.138497
20
313.235916
70
0
0
VERTEX
8
1
10
25.344150
20
313.226198
70
0
0
VERTEX
8
1
10
25.463209
20
313.370523
70
0
0
VERTEX
8
1
10
25.446741
20
313.535629
70
0
0
VERTEX
8
1
10
25.268411
20
313.645488
70
0
0
VERTEX
8
1
10
25.268411
20
313.645488
70
0
0
SEQEND
8
1
0
POLYLINE
8
1
62
7
70
0
10
0.000000
20
0.000000
66
1
0
VERTEX
8
1
10
29.990630
20
304.618285
70
0
0
VERTEX
8
1
10
30.398769
20
304.527865
70
0
0
VERTEX
8
1
10
30.662640
20
304.285010
70
0
0
VERTEX
8
1
10
30.747953
20
303.875909
70
0
0
VERTEX
8
1
10
30.638617
20
303.472564
70
0
0
VERTEX
8
1
10
30.358679
20
303.243671
70
0
0
VERTEX
8
1
10
29.945973
20
303.179641
70
0
0
VERTEX
8
1
10
29.542002
20
303.267820
70
0
0
VERTEX
8
1
10
29.278194
20
303.512791
70
0
0
VERTEX
8
1
10
29.192944
20
303.924007
70
0
0
VERTEX
8
1
10
29.302217
20
304.325237
70
0
0
VERTEX
8
1
10
29.580039
20
304.554192
70
0
0
VERTEX
8
1
10
29.990630
20
304.618285
70
0
0
VERTEX
8
1
10
29.990630
20
304.618285
70
0
0
SEQEND
8
1
0
POLYLINE
8
1
62
7
70
0
10
0.000000
20
0.000000
66
1
0
VERTEX
8
1
10
29.958161
20
303.520214
70
0
0
VERTEX
8
1
10
30.333159
20
303.598064
70
0
0
VERTEX
8
1
10
30.475022
20
303.883980
70
0
0
VERTEX
8
1
10
30.350301
20
304.177778
70
0
0
VERTEX
8
1
10
29.980557
20
304.277650
70
0
0
VERTEX
8
1
10
29.605559
20
304.199800
70
0
0
VERTEX
8
1
10
29.461643
20
303.916062
70
0
0
VERTEX
8
1
10
29.588417
20
303.620086
70
0
0
VERTEX
8
1
10
29.958161
20
303.520214
70
0
0
VERTEX
8
1
10
29.958161
20
303.520214
70
0
0
SEQEND
8
1
0
POLYLINE
8
1
62
7
70
0
10
0.000000
20
0.000000
66
1
0
VERTEX
8
1
10
30.766522
20
305.220033
70
0
0
VERTEX
8
1
10
30.757200
20
304.904787
70
0
0
VERTEX
8
1
10
29.246559
20
304.949456
70
0
0
VERTEX
8
1
10
29.272146
20
305.814795
70
0
0
VERTEX
8
1
10
29.534498
20
305.807038
70
0
0
VERTEX
8
1
10
29.518233
20
305.256944
70
0
0
VERTEX
8
1
10
29.907530
20
305.245433
70
0
0
VERTEX
8
1
10
29.922669
20
305.757443
70
0
0
VERTEX
8
1
10
30.185021
20
305.749686
70
0
0
VERTEX
8
1
10
30.169882
20
305.237675
70
0
0
VERTEX
8
1
10
30.766522
20
305.220033
70
0
0
SEQEND
8
1
0
POLYLINE
8
1
62
7
70
0
10
0.000000
20
0.000000
66
1
0
VERTEX
8
1
10
30.800867
20
306.381576
70
0
0
VERTEX
8
1
10
30.791546
20
306.066330
70
0
0
VERTEX
8
1
10
29.280905
20
306.110999
70
0
0
VERTEX
8
1
10
29.306492
20
306.976338
70
0
0
VERTEX
8
1
10
29.568844
20
306.968581
70
0
0
VERTEX
8
1
10
29.552579
20
306.418487
70
0
0
VERTEX
8
1
10
29.941875
20
306.406976
70
0
0
VERTEX
8
1
10
29.957015
20
306.918986
70
0
0
VERTEX
8
1
10
30.219367
20
306.911228
70
0
0
VERTEX
8
1
10
30.204228
20
306.399218
70
0
0
VERTEX
8
1
10
30.800867
20
306.381576
70
0
0
SEQEND
8
1
0
POLYLINE
8
1
62
7
70
0
10
0.000000
20
0.000000
66
1
0
VERTEX
8
1
10
22.212370
20
309.196243
70
0
0
VERTEX
8
1
10
22.208545
20
309.640933
70
0
0
VERTEX
8
1
10
22.417321
20
309.957020
70
0
0
VERTEX
8
1
10
22.807781
20
310.137287
70
0
0
VERTEX
8
1
10
23.257133
20
310.242186
70
0
0
VERTEX
8
1
10
23.600699
20
308.770455
70
0
0
VERTEX
8
1
10
23.114244
20
308.656895
70
0
0
VERTEX
8
1
10
22.531372
20
308.714276
70
0
0
VERTEX
8
1
10
22.212370
20
309.196243
70
0
0
VERTEX
8
1
10
22.212370
20
309.196243
70
0
0
SEQEND
8
1
0
POLYLINE
8
1
62
7
70
0
10
0.000000
20
0.000000
66
1
0
VERTEX
8
1
10
22.539283
20
309.285600
70
0
0
VERTEX
8
1
10
22.726208
20
308.959728
70
0
0
VERTEX
8
1
10
23.062341
20
308.916476
70
0
0
VERTEX
8
1
10
23.225180
20
308.954489
70
0
0
VERTEX
8
1
10
23.002391
20
309.908847
70
0
0
VERTEX
8
1
10
22.870471
20
309.878051
70
0
0
VERTEX
8
1
10
22.565059
20
309.677970
70
0
0
VERTEX
8
1
10
22.539283
20
309.285600
70
0
0
VERTEX
8
1
10
22.539283
20
309.285600
70
0
0
SEQEND
8
1
0
POLYLINE
8
1
62
255
70
0
10
0.000000
20
0.000000
66
1
0
VERTEX
8
1
10
23.895753
20
310.303409
70
0
0
VERTEX
8
1
10
25.327879
20
310.901866
70
0
0
SEQEND
8
1
0
POLYLINE
8
1
62
255
70
0
10
0.000000
20
0.000000
66
1
0
VERTEX
8
1
10
24.171385
20
309.737894
70
0
0
VERTEX
8
1
10
25.641347
20
310.236242
70
0
0
SEQEND
8
1
0
POLYLINE
8
1
62
255
70
0
10
0.000000
20
0.000000
66
1
0
VERTEX
8
1
10
24.324697
20
309.102249
70
0
0
VERTEX
8
1
10
25.852823
20
309.374230
70
0
0
SEQEND
8
1
0
POLYLINE
8
1
62
255
70
0
10
0.000000
20
0.000000
66
1
0
VERTEX
8
1
10
29.450949
20
319.429209
70
0
0
VERTEX
8
1
10
29.412575
20
319.670256
70
0
0
VERTEX
8
1
10
29.418794
20
319.871600
70
0
0
VERTEX
8
1
10
29.614172
20
319.822551
70
0
0
VERTEX
8
1
10
29.835552
20
319.719753
70
0
0
VERTEX
8
1
10
29.978866
20
319.917334
70
0
0
VERTEX
8
1
10
30.125636
20
320.055308
70
0
0
VERTEX
8
1
10
30.229109
20
319.882472
70
0
0
VERTEX
8
1
10
30.312955
20
319.653242
70
0
0
VERTEX
8
1
10
30.554004
20
319.691615
70
0
0
VERTEX
8
1
10
30.755348
20
319.685394
70
0
0
VERTEX
8
1
10
30.706299
20
319.490018
70
0
0
VERTEX
8
1
10
30.603502
20
319.268636
70
0
0
VERTEX
8
1
10
30.801083
20
319.125323
70
0
0
VERTEX
8
1
10
30.939056
20
318.978553
70
0
0
VERTEX
8
1
10
30.766220
20
318.875079
70
0
0
VERTEX
8
1
10
30.536991
20
318.791233
70
0
0
VERTEX
8
1
10
30.575364
20
318.550184
70
0
0
VERTEX
8
1
10
30.569143
20
318.348842
70
0
0
VERTEX
8
1
10
30.373766
20
318.397891
70
0
0
VERTEX
8
1
10
30.152385
20
318.500689
70
0
0
VERTEX
8
1
10
30.009072
20
318.303108
70
0
0
VERTEX
8
1
10
29.862301
20
318.165134
70
0
0
VERTEX
8
1
10
29.758838
20
318.337970
70
0
0
VERTEX
8
1
10
29.674982
20
318.567200
70
0
0
VERTEX
8
1
10
29.433933
20
318.528827
70
0
0
VERTEX
8
1
10
29.232589
20
318.535048
70
0
0
VERTEX
8
1
10
29.281640
20
318.730424
70
0
0
VERTEX
8
1
10
29.384438
20
318.951806
70
0
0
VERTEX
8
1
10
29.186856
20
319.095118
70
0
0
VERTEX
8
1
10
29.048883
20
319.241887
70
0
0
VERTEX
8
1
10
29.221719
20
319.345361
70
0
0
VERTEX
8
1
10
29.450949
20
319.429209
70
0
0
VERTEX
8
1
10
29.450949
20
319.429209
70
0
0
SEQEND
8
1
0
POLYLINE
8
1
62
7
70
0
10
0.000000
20
0.000000
66
1
0
VERTEX
8
1
10
32.460926
20
315.777790
70
0
0
VERTEX
8
1
10
34.160361
20
314.855239
70
0
0
SEQEND
8
1
0
POLYLINE
8
1
62
7
70
0
10
0.000000
20
0.000000
66
1
0
VERTEX
8
1
10
34.263398
20
319.783556
70
0
0
VERTEX
8
1
10
32.460926
20
316.275249
70
0
0
VERTEX
8
1
10
33.515868
20
315.489493
70
0
0
VERTEX
8
1
10
34.409641
20
314.567345
70
0
0
VERTEX
8
1
10
37.714862
20
317.083984
70
0
0
VERTEX
8
1
10
36.178173
20
318.602758
70
0
0
VERTEX
8
1
10
34.263398
20
319.783556
70
0
0
VERTEX
8
1
10
34.263398
20
319.783556
70
0
0
SEQEND
8
1
0
POLYLINE
8
1
62
7
70
0
10
0.000000
20
0.000000
66
1
0
VERTEX
8
1
10
38.410424
20
316.063892
70
0
0
VERTEX
8
1
10
35.109855
20
313.550870
70
0
0
VERTEX
8
1
10
35.597045
20
312.506315
70
0
0
VERTEX
8
1
10
35.902056
20
311.404750
70
0
0
VERTEX
8
1
10
39.449638
20
311.484331
70
0
0
VERTEX
8
1
10
39.354036
20
313.500229
70
0
0
VERTEX
8
1
10
38.996291
20
314.816859
70
0
0
VERTEX
8
1
10
38.410424
20
316.063892
70
0
0
VERTEX
8
1
10
38.410424
20
316.063892
70
0
0
SEQEND
8
1
0
POLYLINE
8
1
62
7
70
0
10
0.000000
20
0.000000
66
1
0
VERTEX
8
1
10
39.251716
20
310.246683
70
0
0
VERTEX
8
1
10
36.019877
20
310.174336
70
0
0
VERTEX
8
1
10
35.946179
20
309.133238
70
0
0
VERTEX
8
1
10
35.716535
20
308.102114
70
0
0
VERTEX
8
1
10
37.823899
20
307.138349
70
0
0
VERTEX
8
1
10
38.696583
20
308.648218
70
0
0
VERTEX
8
1
10
39.251716
20
310.246683
70
0
0
VERTEX
8
1
10
39.251716
20
310.246683
70
0
0
SEQEND
8
1
0
POLYLINE
8
1
62
7
70
0
10
0.000000
20
0.000000
66
1
0
VERTEX
8
1
10
35.265400
20
306.952315
70
0
0
VERTEX
8
1
10
34.489325
20
305.677088
70
0
0
VERTEX
8
1
10
33.472231
20
304.527142
70
0
0
VERTEX
8
1
10
34.131106
20
303.857417
70
0
0
VERTEX
8
1
10
35.690174
20
304.902483
70
0
0
VERTEX
8
1
10
37.027049
20
306.147197
70
0
0
VERTEX
8
1
10
35.265400
20
306.952315
70
0
0
SEQEND
8
1
 0 
ENDSEC
 0 
EOF