%TF.GenerationSoftware,KiCad,Pcbnew,8.0.2*%
%TF.CreationDate,2024-05-12T23:34:45+03:00*%
%TF.ProjectId,COOLER BASE,434f4f4c-4552-4204-9241-53452e6b6963,rev?*%
%TF.SameCoordinates,Original*%
%TF.FileFunction,Drillmap*%
%TF.FilePolarity,Positive*%
%FSLAX45Y45*%
G04 Gerber Fmt 4.5, Leading zero omitted, Abs format (unit mm)*
G04 Created by KiCad (PCBNEW 8.0.2) date 2024-05-12 23:34:45*
%MOMM*%
%LPD*%
G01*
G04 APERTURE LIST*
%ADD10C,0.050000*%
%ADD11C,0.200000*%
G04 APERTURE END LIST*
D10*
X12726000Y-7334000D02*
X12726000Y-10180000D01*
X11806000Y-11100000D01*
X11299000Y-11100000D01*
X11299000Y-6407000D01*
X11300000Y-6406000D01*
X11798000Y-6406000D01*
X12726000Y-7334000D01*
D11*
X11557277Y-11413984D02*
X11557277Y-11213984D01*
X11557277Y-11213984D02*
X11604896Y-11213984D01*
X11604896Y-11213984D02*
X11633467Y-11223508D01*
X11633467Y-11223508D02*
X11652515Y-11242555D01*
X11652515Y-11242555D02*
X11662039Y-11261603D01*
X11662039Y-11261603D02*
X11671562Y-11299698D01*
X11671562Y-11299698D02*
X11671562Y-11328269D01*
X11671562Y-11328269D02*
X11662039Y-11366365D01*
X11662039Y-11366365D02*
X11652515Y-11385412D01*
X11652515Y-11385412D02*
X11633467Y-11404460D01*
X11633467Y-11404460D02*
X11604896Y-11413984D01*
X11604896Y-11413984D02*
X11557277Y-11413984D01*
X11757277Y-11413984D02*
X11757277Y-11280650D01*
X11757277Y-11318746D02*
X11766801Y-11299698D01*
X11766801Y-11299698D02*
X11776324Y-11290174D01*
X11776324Y-11290174D02*
X11795372Y-11280650D01*
X11795372Y-11280650D02*
X11814420Y-11280650D01*
X11881086Y-11413984D02*
X11881086Y-11280650D01*
X11881086Y-11213984D02*
X11871562Y-11223508D01*
X11871562Y-11223508D02*
X11881086Y-11233031D01*
X11881086Y-11233031D02*
X11890610Y-11223508D01*
X11890610Y-11223508D02*
X11881086Y-11213984D01*
X11881086Y-11213984D02*
X11881086Y-11233031D01*
X12004896Y-11413984D02*
X11985848Y-11404460D01*
X11985848Y-11404460D02*
X11976324Y-11385412D01*
X11976324Y-11385412D02*
X11976324Y-11213984D01*
X12109658Y-11413984D02*
X12090610Y-11404460D01*
X12090610Y-11404460D02*
X12081086Y-11385412D01*
X12081086Y-11385412D02*
X12081086Y-11213984D01*
X12338229Y-11413984D02*
X12338229Y-11213984D01*
X12338229Y-11213984D02*
X12404896Y-11356841D01*
X12404896Y-11356841D02*
X12471562Y-11213984D01*
X12471562Y-11213984D02*
X12471562Y-11413984D01*
X12652515Y-11413984D02*
X12652515Y-11309222D01*
X12652515Y-11309222D02*
X12642991Y-11290174D01*
X12642991Y-11290174D02*
X12623943Y-11280650D01*
X12623943Y-11280650D02*
X12585848Y-11280650D01*
X12585848Y-11280650D02*
X12566801Y-11290174D01*
X12652515Y-11404460D02*
X12633467Y-11413984D01*
X12633467Y-11413984D02*
X12585848Y-11413984D01*
X12585848Y-11413984D02*
X12566801Y-11404460D01*
X12566801Y-11404460D02*
X12557277Y-11385412D01*
X12557277Y-11385412D02*
X12557277Y-11366365D01*
X12557277Y-11366365D02*
X12566801Y-11347317D01*
X12566801Y-11347317D02*
X12585848Y-11337793D01*
X12585848Y-11337793D02*
X12633467Y-11337793D01*
X12633467Y-11337793D02*
X12652515Y-11328269D01*
X12747753Y-11280650D02*
X12747753Y-11480650D01*
X12747753Y-11290174D02*
X12766801Y-11280650D01*
X12766801Y-11280650D02*
X12804896Y-11280650D01*
X12804896Y-11280650D02*
X12823943Y-11290174D01*
X12823943Y-11290174D02*
X12833467Y-11299698D01*
X12833467Y-11299698D02*
X12842991Y-11318746D01*
X12842991Y-11318746D02*
X12842991Y-11375888D01*
X12842991Y-11375888D02*
X12833467Y-11394936D01*
X12833467Y-11394936D02*
X12823943Y-11404460D01*
X12823943Y-11404460D02*
X12804896Y-11413984D01*
X12804896Y-11413984D02*
X12766801Y-11413984D01*
X12766801Y-11413984D02*
X12747753Y-11404460D01*
X12928705Y-11394936D02*
X12938229Y-11404460D01*
X12938229Y-11404460D02*
X12928705Y-11413984D01*
X12928705Y-11413984D02*
X12919182Y-11404460D01*
X12919182Y-11404460D02*
X12928705Y-11394936D01*
X12928705Y-11394936D02*
X12928705Y-11413984D01*
X12928705Y-11290174D02*
X12938229Y-11299698D01*
X12938229Y-11299698D02*
X12928705Y-11309222D01*
X12928705Y-11309222D02*
X12919182Y-11299698D01*
X12919182Y-11299698D02*
X12928705Y-11290174D01*
X12928705Y-11290174D02*
X12928705Y-11309222D01*
M02*
