%TF.GenerationSoftware,KiCad,Pcbnew,8.0.2*%
%TF.CreationDate,2024-05-12T23:34:57+03:00*%
%TF.ProjectId,COOLER BASE,434f4f4c-4552-4204-9241-53452e6b6963,rev?*%
%TF.SameCoordinates,Original*%
%TF.FileFunction,Soldermask,Top*%
%TF.FilePolarity,Negative*%
%FSLAX46Y46*%
G04 Gerber Fmt 4.6, Leading zero omitted, Abs format (unit mm)*
G04 Created by KiCad (PCBNEW 8.0.2) date 2024-05-12 23:34:57*
%MOMM*%
%LPD*%
G01*
G04 APERTURE LIST*
%ADD10C,0.100000*%
%ADD11C,0.200000*%
%ADD12C,0.150000*%
G04 APERTURE END LIST*
D10*
X113090000Y-80410000D02*
X127170000Y-80410000D01*
X127170000Y-94710000D01*
X113090000Y-94710000D01*
X113090000Y-80410000D01*
G36*
X113090000Y-80410000D02*
G01*
X127170000Y-80410000D01*
X127170000Y-94710000D01*
X113090000Y-94710000D01*
X113090000Y-80410000D01*
G37*
D11*
X113180000Y-101374704D02*
X117950296Y-101374704D01*
X117950296Y-110765296D01*
X113180000Y-110765296D01*
X113180000Y-101374704D01*
G36*
X113180000Y-101374704D02*
G01*
X117950296Y-101374704D01*
X117950296Y-110765296D01*
X113180000Y-110765296D01*
X113180000Y-101374704D01*
G37*
X113165527Y-64252615D02*
X117880000Y-64252615D01*
X117880000Y-73687384D01*
X113165527Y-73687384D01*
X113165527Y-64252615D01*
G36*
X113165527Y-64252615D02*
G01*
X117880000Y-64252615D01*
X117880000Y-73687384D01*
X113165527Y-73687384D01*
X113165527Y-64252615D01*
G37*
D12*
X117539160Y-79082200D02*
X117682017Y-79129819D01*
X117682017Y-79129819D02*
X117920112Y-79129819D01*
X117920112Y-79129819D02*
X118015350Y-79082200D01*
X118015350Y-79082200D02*
X118062969Y-79034580D01*
X118062969Y-79034580D02*
X118110588Y-78939342D01*
X118110588Y-78939342D02*
X118110588Y-78844104D01*
X118110588Y-78844104D02*
X118062969Y-78748866D01*
X118062969Y-78748866D02*
X118015350Y-78701247D01*
X118015350Y-78701247D02*
X117920112Y-78653628D01*
X117920112Y-78653628D02*
X117729636Y-78606009D01*
X117729636Y-78606009D02*
X117634398Y-78558390D01*
X117634398Y-78558390D02*
X117586779Y-78510771D01*
X117586779Y-78510771D02*
X117539160Y-78415533D01*
X117539160Y-78415533D02*
X117539160Y-78320295D01*
X117539160Y-78320295D02*
X117586779Y-78225057D01*
X117586779Y-78225057D02*
X117634398Y-78177438D01*
X117634398Y-78177438D02*
X117729636Y-78129819D01*
X117729636Y-78129819D02*
X117967731Y-78129819D01*
X117967731Y-78129819D02*
X118110588Y-78177438D01*
X118396303Y-78129819D02*
X118729636Y-79129819D01*
X118729636Y-79129819D02*
X119062969Y-78129819D01*
X119348684Y-78225057D02*
X119396303Y-78177438D01*
X119396303Y-78177438D02*
X119491541Y-78129819D01*
X119491541Y-78129819D02*
X119729636Y-78129819D01*
X119729636Y-78129819D02*
X119824874Y-78177438D01*
X119824874Y-78177438D02*
X119872493Y-78225057D01*
X119872493Y-78225057D02*
X119920112Y-78320295D01*
X119920112Y-78320295D02*
X119920112Y-78415533D01*
X119920112Y-78415533D02*
X119872493Y-78558390D01*
X119872493Y-78558390D02*
X119301065Y-79129819D01*
X119301065Y-79129819D02*
X119920112Y-79129819D01*
X120348684Y-79129819D02*
X120348684Y-78129819D01*
X120824874Y-79129819D02*
X120824874Y-78129819D01*
X120824874Y-78129819D02*
X121205826Y-78129819D01*
X121205826Y-78129819D02*
X121301064Y-78177438D01*
X121301064Y-78177438D02*
X121348683Y-78225057D01*
X121348683Y-78225057D02*
X121396302Y-78320295D01*
X121396302Y-78320295D02*
X121396302Y-78463152D01*
X121396302Y-78463152D02*
X121348683Y-78558390D01*
X121348683Y-78558390D02*
X121301064Y-78606009D01*
X121301064Y-78606009D02*
X121205826Y-78653628D01*
X121205826Y-78653628D02*
X120824874Y-78653628D01*
X121729636Y-78129819D02*
X121967731Y-79129819D01*
X121967731Y-79129819D02*
X122158207Y-78415533D01*
X122158207Y-78415533D02*
X122348683Y-79129819D01*
X122348683Y-79129819D02*
X122586779Y-78129819D01*
M02*
